<svg xmlns="http://www.w3.org/2000/svg" xmlns:xlink="http://www.w3.org/1999/xlink" width="16" height="16" style="fill: context-fill; fill-opacity: context-fill-opacity;" preserveAspectRatio="xMidYMid meet" viewBox="0 0 20 20">
  <g>
    <path d="m12.783,0.22l4.495,4.494a0.75,0.75 0 0 1 0.073,0.976l-0.072,0.085l-4.495,4.504a0.75,0.75 0 0 1 -1.135,-0.975l0.073,-0.084l3.217,-3.223l-11.696,0a0.75,0.75 0 0 1 -0.743,-0.647l-0.007,-0.101a0.75,0.75 0 0 1 0.648,-0.743l0.102,-0.007l11.697,-0.001l-3.218,-3.217a0.75,0.75 0 0 1 -0.072,-0.976l0.072,-0.084a0.75,0.75 0 0 1 0.977,-0.073l0.084,0.073l4.495,4.494l-4.495,-4.494l0,-0.001zm4.717,14.43l0.006,0.1a0.75,0.75 0 0 1 -0.648,0.744l-0.102,0.007l-11.693,-0.001l3.22,3.22a0.75,0.75 0 0 1 0.074,0.976l-0.073,0.084a0.75,0.75 0 0 1 -0.976,0.073l-0.085,-0.072l-4.5,-4.497a0.75,0.75 0 0 1 -0.073,-0.976l0.073,-0.084l4.5,-4.504a0.75,0.75 0 0 1 1.134,0.976l-0.073,0.084l-3.218,3.22l11.692,0a0.75,0.75 0 0 1 0.743,0.65l0.006,0.1l-0.006,-0.1l-0.001,0z"/>
  </g>
</svg>