<svg xmlns="http://www.w3.org/2000/svg" xmlns:xlink="http://www.w3.org/1999/xlink" width="16" height="16" style="fill: context-fill; fill-opacity: context-fill-opacity;" preserveAspectRatio="xMidYMid meet" viewBox="0 0 16 16">
  <g>
    <path d="m14,2.5a2.5,2.5 0 0 0 -2.5,-2.5l-9,0a2.5,2.5 0 0 0 -2.5,2.5l0,9a2.5,2.5 0 0 0 2.5,2.5l4.1,0a5.465,5.465 0 0 1 -0.393,-1l-3.707,0a1.5,1.5 0 0 1 -1.5,-1.5l0,-7.5l12,0l0,2.207c0.349,0.099 0.683,0.23 1,0.393l0,-4.1zm-11.5,-1.5l9,0a1.5,1.5 0 0 1 1.5,1.5l0,0.5l-12,0l0,-0.5a1.5,1.5 0 0 1 1.5,-1.5z"/>
    <path d="m16,11.5a4.5,4.5 0 1 1 -9,0a4.5,4.5 0 0 1 9,0zm-4.024,-2.64a0.494,0.494 0 0 0 -0.952,0l-0.477,1.532l-1.547,0c-0.484,0 -0.686,0.647 -0.294,0.944l1.25,0.947l-0.477,1.532c-0.15,0.48 0.378,0.88 0.77,0.583l1.25,-0.947l1.25,0.947c0.392,0.297 0.92,-0.103 0.77,-0.583l-0.477,-1.532l1.25,-0.947c0.392,-0.297 0.19,-0.944 -0.294,-0.944l-1.545,0l-0.478,-1.531l0.001,-0.001z"/>
  </g>
</svg>