<svg xmlns="http://www.w3.org/2000/svg" xmlns:xlink="http://www.w3.org/1999/xlink" width="16" height="16" style="fill: context-fill; fill-opacity: context-fill-opacity;" preserveAspectRatio="xMidYMid meet" viewBox="0 0 16 16">
  <g>
    <path d="m7,1a0.5,0.5 0 0 0 -1,0l0,0.5c0,0.397 0.116,0.767 0.315,1.078a3.001,3.001 0 0 0 -2.315,2.922l-0.5,0a1.5,1.5 0 0 1 -1.5,-1.5l0,-2a0.5,0.5 0 0 0 -1,0l0,2a2.5,2.5 0 0 0 2.5,2.5l0.5,0l0,1.5l-3.5,0a0.5,0.5 0 0 0 0,1l3.5,0l0,1.5l-0.5,0a2.5,2.5 0 0 0 -2.5,2.5l0,2a0.5,0.5 0 0 0 1,0l0,-2a1.5,1.5 0 0 1 1.5,-1.5l0.5,0a4,4 0 0 0 8,0l0.5,0a1.5,1.5 0 0 1 1.5,1.5l0,2a0.5,0.5 0 0 0 1,0l0,-2a2.5,2.5 0 0 0 -2.5,-2.5l-0.5,0l0,-1.5l3.5,0a0.5,0.5 0 0 0 0,-1l-3.5,0l0,-1.5l0.5,0a2.5,2.5 0 0 0 2.5,-2.5l0,-2a0.5,0.5 0 0 0 -1,0l0,2a1.5,1.5 0 0 1 -1.5,1.5l-0.5,0a3.001,3.001 0 0 0 -2.315,-2.922c0.2,-0.31 0.315,-0.68 0.315,-1.078l0,-0.5a0.5,0.5 0 0 0 -1,0l0,0.5a1,1 0 1 1 -2,0l0,-0.5zm4,4.5l0,6a3,3 0 1 1 -6,0l0,-6a2,2 0 0 1 2,-2l2,0a2,2 0 0 1 2,2z"/>
  </g>
</svg>