<svg xmlns="http://www.w3.org/2000/svg" xmlns:xlink="http://www.w3.org/1999/xlink" width="16" height="16" style="fill: context-fill; fill-opacity: context-fill-opacity;" preserveAspectRatio="xMidYMid meet" viewBox="0 0 16 16">
  <g>
    <path d="m7.5,0a1.5,1.5 0 0 0 -1.415,1l-1.585,0a1.5,1.5 0 0 0 -1.5,1.5l0,3.756c0.318,-0.112 0.653,-0.19 1,-0.229l0,-3.527a0.5,0.5 0 0 1 0.5,-0.5l1.585,0a1.5,1.5 0 0 0 1.415,1l3,0a1.5,1.5 0 0 0 1.415,-1l1.585,0a0.5,0.5 0 0 1 0.5,0.5l0,12a0.5,0.5 0 0 1 -0.5,0.5l-2.585,0c0.114,0.323 0.114,0.677 0,1l2.585,0a1.5,1.5 0 0 0 1.5,-1.5l0,-12a1.5,1.5 0 0 0 -1.5,-1.5l-1.585,0a1.5,1.5 0 0 0 -1.415,-1l-3,0zm3,1a0.5,0.5 0 0 1 0,1l-3,0a0.5,0.5 0 0 1 0,-1l3,0zm-3.197,11.596a3.5,3.5 0 1 0 -0.707,0.707l2.55,2.55a0.5,0.5 0 0 0 0.708,-0.707l-2.55,-2.55l-0.001,0zm-2.803,0.404a2.5,2.5 0 1 1 0,-5a2.5,2.5 0 0 1 0,5z"/>
  </g>
</svg>