<svg xmlns="http://www.w3.org/2000/svg" xmlns:xlink="http://www.w3.org/1999/xlink" width="16" height="16" style="fill: context-fill; fill-opacity: context-fill-opacity;" preserveAspectRatio="xMidYMid meet" viewBox="0 0 16 16">
  <g>
    <path d="m1,4a1,1 0 0 1 1,-1l0.5,0a0.5,0.5 0 0 0 0,-1l-0.5,0a2,2 0 0 0 -2,2l0,0.5a0.5,0.5 0 0 0 1,0l0,-0.5z"/>
    <path d="m7.5,2a0.5,0.5 0 0 0 -0.5,0.5l0,11a0.5,0.5 0 0 0 0.5,0.5l6.5,0a2,2 0 0 0 2,-2l0,-4.586a1.5,1.5 0 0 0 -0.44,-1.06l-3.914,-3.915a1.5,1.5 0 0 0 -1.06,-0.439l-3.086,0zm0.5,11l0,-10l2,0l0,3.5a1.5,1.5 0 0 0 1.5,1.5l3.5,0l0,4a1,1 0 0 1 -1,1l-6,0zm3.5,-6a0.5,0.5 0 0 1 -0.5,-0.5l0,-3.293l3.793,3.793l-3.293,0z"/>
    <path d="m1,12a1,1 0 0 0 1,1l0.5,0a0.5,0.5 0 0 1 0,1l-0.5,0a2,2 0 0 1 -2,-2l0,-0.5a0.5,0.5 0 0 1 1,0l0,0.5z"/>
    <path d="m1,6.5a0.5,0.5 0 0 0 -1,0l0,3a0.5,0.5 0 0 0 1,0l0,-3z"/>
    <path d="m4,2.5a0.5,0.5 0 0 1 0.5,-0.5l1,0a0.5,0.5 0 0 1 0,1l-1,0a0.5,0.5 0 0 1 -0.5,-0.5z"/>
    <path d="m4.5,13a0.5,0.5 0 0 0 0,1l1,0a0.5,0.5 0 0 0 0,-1l-1,0z"/>
  </g>
</svg>