<svg xmlns="http://www.w3.org/2000/svg" xmlns:xlink="http://www.w3.org/1999/xlink" width="16" height="16" style="fill: context-fill; fill-opacity: context-fill-opacity;" preserveAspectRatio="xMidYMid meet" viewBox="0 0 16 16">
  <g>
    <path d="m2.5,2l1.585,0a1.5,1.5 0 0 0 1.415,1l3,0a1.5,1.5 0 0 0 1.415,-1l1.585,0a0.5,0.5 0 0 1 0.5,0.5l0,1a0.5,0.5 0 0 0 1,0l0,-1a1.5,1.5 0 0 0 -1.5,-1.5l-1.585,0a1.5,1.5 0 0 0 -1.415,-1l-3,0a1.5,1.5 0 0 0 -1.415,1l-1.585,0a1.5,1.5 0 0 0 -1.5,1.5l0,12a1.5,1.5 0 0 0 1.5,1.5l3,0a0.5,0.5 0 0 0 0,-1l-3,0a0.5,0.5 0 0 1 -0.5,-0.5l0,-12a0.5,0.5 0 0 1 0.5,-0.5zm3,0a0.5,0.5 0 0 1 0,-1l3,0a0.5,0.5 0 0 1 0,1l-3,0z"/>
    <path d="m8.5,5a1.5,1.5 0 0 0 -1.5,1.5l0,8a1.5,1.5 0 0 0 1.5,1.5l5,0a1.5,1.5 0 0 0 1.5,-1.5l0,-8a1.5,1.5 0 0 0 -1.5,-1.5l-5,0zm-0.5,1.5a0.5,0.5 0 0 1 0.5,-0.5l5,0a0.5,0.5 0 0 1 0.5,0.5l0,8a0.5,0.5 0 0 1 -0.5,0.5l-5,0a0.5,0.5 0 0 1 -0.5,-0.5l0,-8z"/>
  </g>
</svg>