<svg xmlns="http://www.w3.org/2000/svg" xmlns:xlink="http://www.w3.org/1999/xlink" width="16" height="16" style="fill: context-fill; fill-opacity: context-fill-opacity;" preserveAspectRatio="xMidYMid meet" viewBox="0 0 15.5 15.5">
  <g>
    <path d="m0.99047,9.352c0.682,-3.275 3.533,-5.602 6.74,-5.602c3.206,0 6.057,2.327 6.74,5.602a0.5,0.5 0 0 0 0.98,-0.204c-0.777,-3.725 -4.027,-6.398 -7.72,-6.398c-3.693,0 -6.943,2.673 -7.72,6.398a0.5,0.5 0 0 0 0.98,0.204z"/>
    <path d="m7.73047,5.75a3.5,3.5 0 1 0 0,7a3.5,3.5 0 0 0 0,-7zm-2.5,3.5a2.5,2.5 0 1 1 5,0a2.5,2.5 0 0 1 -5,0z"/>
  </g>
</svg>