<svg xmlns="http://www.w3.org/2000/svg" xmlns:xlink="http://www.w3.org/1999/xlink" width="16" height="16" style="fill: context-fill; fill-opacity: context-fill-opacity;" preserveAspectRatio="xMidYMid meet" viewBox="0 0 16 16">
  <g>
    <path d="m8.5,10a1.5,1.5 0 0 1 1.5,1.5l0,0.5c0,1.971 -1.86,4 -5,4c-3.14,0 -5,-2.029 -5,-4l0,-0.5a1.5,1.5 0 0 1 1.5,-1.5l7,0zm0,1l-7,0a0.5,0.5 0 0 0 -0.5,0.5l0,0.5c0,1.438 1.432,3 4,3s4,-1.562 4,-3l0,-0.5a0.5,0.5 0 0 0 -0.5,-0.5zm-3.5,-7.5a2.75,2.75 0 1 1 0,5.5a2.75,2.75 0 0 1 0,-5.5zm9,-3.5a2,2 0 0 1 1.994,1.85l0.006,0.15l0,2a2,2 0 0 1 -1.85,1.995l-0.15,0.005l-1.501,0l-1.198,1.6c-0.53,0.706 -1.604,0.42 -1.777,-0.376l-0.017,-0.111l-0.007,-0.113l0,-1.065l-0.078,-0.02a2.003,2.003 0 0 1 -1.397,-1.6l-0.02,-0.166l-0.005,-0.149l0,-2a2,2 0 0 1 1.85,-1.995l0.15,-0.005l4,0zm-9,4.5a1.75,1.75 0 1 0 0,3.5a1.75,1.75 0 0 0 0,-3.5zm9,-3.5l-4,0a1,1 0 0 0 -0.993,0.883l-0.007,0.117l0,2a1,1 0 0 0 0.883,0.993l0.117,0.007l0.5,0l0,2l1.5,-2l2,0a1,1 0 0 0 0.993,-0.883l0.007,-0.117l0,-2a1,1 0 0 0 -0.883,-0.993l-0.117,-0.007z"/>
  </g>
</svg>