<svg xmlns="http://www.w3.org/2000/svg" xmlns:xlink="http://www.w3.org/1999/xlink" width="16" height="16" style="fill: context-fill; fill-opacity: context-fill-opacity;" preserveAspectRatio="xMidYMid meet" viewBox="0 0 21 21">
  <g>
    <path d="m17.75,3a3.25,3.25 0 0 1 3.25,3.25l0,11.5a3.25,3.25 0 0 1 -3.25,3.25l-11.5,0a3.25,3.25 0 0 1 -3.25,-3.25l0,-6.248c0.474,0.198 0.977,0.34 1.5,0.422l0,5.826c0,0.208 0.036,0.408 0.103,0.594l5.823,-5.701a2.25,2.25 0 0 1 3.02,-0.116l0.128,0.116l5.822,5.702c0.067,-0.186 0.104,-0.386 0.104,-0.595l0,-11.5a1.75,1.75 0 0 0 -1.75,-1.75l-5.826,0a6.457,6.457 0 0 0 -0.422,-1.5l6.248,0zm-6.191,10.644l-0.084,0.07l-5.807,5.687c0.182,0.064 0.378,0.099 0.582,0.099l11.5,0c0.203,0 0.399,-0.035 0.58,-0.099l-5.805,-5.686a0.75,0.75 0 0 0 -0.966,-0.071zm3.693,-7.144a2.252,2.252 0 1 1 0,4.504a2.252,2.252 0 0 1 0,-4.504zm-9.752,-6.5a5.5,5.5 0 1 1 0,11a5.5,5.5 0 0 1 0,-11zm9.752,8a0.752,0.752 0 1 0 0,1.504a0.752,0.752 0 0 0 0,-1.504zm-9.752,-6l-0.09,0.007a0.5,0.5 0 0 0 -0.402,0.402l-0.008,0.091l0,2.5l-2.502,0l-0.09,0.008a0.5,0.5 0 0 0 -0.402,0.402l-0.008,0.09l0.008,0.09a0.5,0.5 0 0 0 0.402,0.402l0.09,0.008l2.502,0l0,2.503l0.008,0.09a0.5,0.5 0 0 0 0.402,0.402l0.09,0.009l0.09,-0.009a0.5,0.5 0 0 0 0.402,-0.402l0.008,-0.09l0,-2.503l2.505,0l0.09,-0.008a0.5,0.5 0 0 0 0.402,-0.402l0.008,-0.09l-0.008,-0.09a0.5,0.5 0 0 0 -0.403,-0.402l-0.09,-0.008l-2.504,0l0,-2.5l-0.008,-0.09a0.5,0.5 0 0 0 -0.402,-0.403l-0.09,-0.007z"/>
  </g>
</svg>