<svg xmlns="http://www.w3.org/2000/svg" xmlns:xlink="http://www.w3.org/1999/xlink" width="16" height="16" style="fill: context-fill; fill-opacity: context-fill-opacity;" preserveAspectRatio="xMidYMid meet" viewBox="0 0 16 16">
  <g>
    <path d="m8,0c3.314,0 6,2.597 6,5.8c0,1.677 -0.745,3.216 -2.204,4.594a0.599,0.599 0 0 0 -0.145,0.213l-0.026,0.081l-0.936,3.917c-0.184,0.771 -0.865,1.33 -1.67,1.39l-0.144,0.005l-1.75,0c-0.818,0 -1.535,-0.516 -1.776,-1.262l-0.038,-0.133l-0.935,-3.916a0.595,0.595 0 0 0 -0.17,-0.295c-1.39,-1.312 -2.133,-2.77 -2.2,-4.355l-0.006,-0.239l0.003,-0.191c0.105,-3.115 2.75,-5.609 5.997,-5.609zm2.045,13l-4.09,0l0.319,1.334l0.026,0.096c0.097,0.3 0.376,0.522 0.712,0.563l0.113,0.007l1.713,0l0.106,-0.003a0.856,0.856 0 0 0 0.741,-0.525l0.031,-0.1l0.329,-1.372zm-2.045,-12c-2.632,0 -4.788,1.953 -4.985,4.414l-0.012,0.212l-0.003,0.153l0.004,0.217c0.056,1.304 0.674,2.525 1.888,3.671c0.188,0.178 0.33,0.398 0.414,0.64l0.043,0.15l0.367,1.543l4.569,0l0.387,-1.615l0.051,-0.15c0.086,-0.215 0.218,-0.409 0.386,-0.568c1.274,-1.202 1.891,-2.486 1.891,-3.867c0,-2.643 -2.231,-4.8 -5,-4.8z"/>
  </g>
</svg>