<svg xmlns="http://www.w3.org/2000/svg" xmlns:xlink="http://www.w3.org/1999/xlink" width="16" height="16" style="fill: context-fill; fill-opacity: context-fill-opacity;" preserveAspectRatio="xMidYMid meet" viewBox="0 0 16 16">
  <g>
    <path d="m3.5,-0.001a0.5,0.5 0 0 0 -0.5,0.5l0,8.504a2,2 0 0 0 2,2l1.004,0l0,2.998a2,2 0 1 0 4,0l0,-2.998l0.996,0a2,2 0 0 0 2,-2l0,-8.503a0.5,0.5 0 0 0 -0.5,-0.5l-9,0l0,-0.001zm0.5,8.004l8,0l0,1a1,1 0 0 1 -1,1l-1.496,0a0.5,0.5 0 0 0 -0.5,0.5l0,3.498a1,1 0 1 1 -2,0l0,-3.498a0.5,0.5 0 0 0 -0.5,-0.5l-1.504,0a1,1 0 0 1 -1,-1l0,-1zm8,-1l-8,0l0,-6.003l4,0l0,1.5a0.5,0.5 0 0 0 1,0l0,-1.5l1,0l0,2.502a0.5,0.5 0 0 0 1,0l0,-2.502l1,0l0,6.004l0,-0.001z"/>
  </g>
</svg>