<svg xmlns="http://www.w3.org/2000/svg" xmlns:xlink="http://www.w3.org/1999/xlink" width="16" height="16" style="fill: context-fill; fill-opacity: context-fill-opacity;" preserveAspectRatio="xMidYMid meet" viewBox="0 0 16 16">
  <g>
    <path d="m10,1.5a1.5,1.5 0 0 1 1.5,-1.5l2,0a1.5,1.5 0 0 1 1.5,1.5l0,13a1.5,1.5 0 0 1 -1.5,1.5l-2,0a1.5,1.5 0 0 1 -1.5,-1.5l0,-13z"/>
    <path d="m1,1.5a1.5,1.5 0 0 1 1.5,-1.5l2,0a1.5,1.5 0 0 1 1.5,1.5l0,13a1.5,1.5 0 0 1 -1.5,1.5l-2,0a1.5,1.5 0 0 1 -1.5,-1.5l0,-13z"/>
  </g>
</svg>