<svg xmlns="http://www.w3.org/2000/svg" xmlns:xlink="http://www.w3.org/1999/xlink" width="16" height="16" style="fill: context-fill; fill-opacity: context-fill-opacity;" preserveAspectRatio="xMidYMid meet" viewBox="0 0 16 16">
  <g>
    <path d="m6.5,0a0.5,0.5 0 0 0 0,1l1,0l0,14l-1,0a0.5,0.5 0 0 0 0,1l3,0a0.5,0.5 0 0 0 0,-1l-1,0l0,-14l1,0a0.5,0.5 0 0 0 0,-1l-3,0z"/>
    <path d="m2.5,2l4,0l0,1l-4,0a1.5,1.5 0 0 0 -1.5,1.5l0,7a1.5,1.5 0 0 0 1.5,1.5l4,0l0,1l-4,0a2.5,2.5 0 0 1 -2.5,-2.5l0,-7a2.5,2.5 0 0 1 2.5,-2.5z"/>
    <path d="m13.5,13l-4,0l0,1l4,0a2.5,2.5 0 0 0 2.5,-2.5l0,-7a2.5,2.5 0 0 0 -2.5,-2.5l-4,0l0,1l4,0a1.5,1.5 0 0 1 1.5,1.5l0,7a1.5,1.5 0 0 1 -1.5,1.5z"/>
  </g>
</svg>