<svg xmlns="http://www.w3.org/2000/svg" xmlns:xlink="http://www.w3.org/1999/xlink" width="16" height="16" style="fill: context-fill; fill-opacity: context-fill-opacity;" preserveAspectRatio="xMidYMid meet" viewBox="0 0 17 17">
  <g>
    <path d="m7.10009,0.72812a1,1 0 0 1 1.794,0l1.93,3.91l4.317,0.628a1,1 0 0 1 0.554,1.706l-0.549,0.535a5.465,5.465 0 0 0 -0.996,-0.426l0.847,-0.825l-4.317,-0.628a1,1 0 0 1 -0.752,-0.547l-1.93,-3.911l-1.932,3.911a1,1 0 0 1 -0.753,0.547l-4.317,0.628l3.124,3.044a1,1 0 0 1 0.287,0.885l-0.737,4.3l3.342,-1.757c0.026,0.356 0.085,0.703 0.176,1.037l-3.052,1.605a1,1 0 0 1 -1.45,-1.055l0.737,-4.299l-3.124,-3.044a1,1 0 0 1 0.554,-1.706l4.317,-0.627l1.93,-3.912l0,0.001z"/>
    <path d="m16.99809,12.32813a4.5,4.5 0 1 1 -9,0a4.5,4.5 0 0 1 9,0zm-4,-2a0.5,0.5 0 0 0 -1,0l0,1.5l-1.5,0a0.5,0.5 0 1 0 0,1l1.5,0l0,1.5a0.5,0.5 0 1 0 1,0l0,-1.5l1.5,0a0.5,0.5 0 1 0 0,-1l-1.5,0l0,-1.5z"/>
  </g>
</svg>