<svg xmlns="http://www.w3.org/2000/svg" xmlns:xlink="http://www.w3.org/1999/xlink" width="16" height="16" style="fill: context-fill; fill-opacity: context-fill-opacity;" preserveAspectRatio="xMidYMid meet" viewBox="0 0 16 16">
  <g>
    <path d="m0.032,8.43238c1.272,-3.37 4.083,-5.823 7.968,-5.823c0.99,0 1.91,0.16 2.754,0.453a1.498,1.498 0 0 0 -0.176,0.212l-0.442,0.64a7.28,7.28 0 0 0 -1.636,-0.29l0,2.485a0.5,0.5 0 0 1 -1,0l0,-2.484c-2.239,0.14 -4.052,1.23 -5.304,2.899a0.501,0.501 0 0 1 0.104,0.06l1.5,1.125a0.5,0.5 0 0 1 -0.6,0.8l-1.5,-1.125a0.505,0.505 0 0 1 -0.048,-0.04a9.514,9.514 0 0 0 -0.684,1.442a0.5,0.5 0 1 1 -0.936,-0.354zm13.195,-3.809c0.015,-0.04 0.027,-0.082 0.038,-0.123c1.2,1.014 2.116,2.375 2.703,3.932a0.5,0.5 0 1 1 -0.936,0.354a9.511,9.511 0 0 0 -0.684,-1.443a0.495,0.495 0 0 1 -0.048,0.041l-1.5,1.125a0.5,0.5 0 0 1 -0.6,-0.8l1.5,-1.125a0.503,0.503 0 0 1 0.105,-0.06a7.787,7.787 0 0 0 -0.894,-1.002l0.316,-0.899zm-1.204,-0.944a0.5,0.5 0 0 1 0.245,0.61l-2.638,7.532a3.316,3.316 0 0 1 -0.54,0.975c-1.09,1.364 -3.237,0.173 -2.69,-1.467a3.32,3.32 0 0 1 0.413,-0.83l4.571,-6.656a0.5,0.5 0 0 1 0.639,-0.163l0,-0.001z"/>
  </g>
</svg>