<svg xmlns="http://www.w3.org/2000/svg" xmlns:xlink="http://www.w3.org/1999/xlink" width="16" height="16" style="fill: context-fill; fill-opacity: context-fill-opacity;" preserveAspectRatio="xMidYMid meet" viewBox="0 0 16 16">
  <g>
    <path d="m3.98376,2.28535a1.70733,1.71402 0 0 0 -1.70733,1.71402l0,2.28535a0.56911,0.57134 0 0 0 1.13822,0l0,-2.28535a0.56911,0.57134 0 0 1 0.56911,-0.57134l2.27644,0a0.56911,0.57134 0 0 0 0,-1.14268l-2.27644,0z"/>
    <path d="m9.67486,2.28535a0.56911,0.57134 0 0 0 0,1.14268l2.27644,0a0.56911,0.57134 0 0 1 0.56911,0.57134l0,2.28535a0.56911,0.57134 0 0 0 1.13822,0l0,-2.28535a1.70733,1.71402 0 0 0 -1.70733,-1.71402l-2.27644,0z"/>
    <path d="m3.41465,9.71275a0.56911,0.57134 0 0 0 -1.13822,0l0,2.28535a1.70733,1.71402 0 0 0 1.70733,1.71402l2.27644,0a0.56911,0.57134 0 0 0 0,-1.14268l-2.27644,0a0.56911,0.57134 0 0 1 -0.56911,-0.57134l0,-2.28535z"/>
    <path d="m13.65862,9.71275a0.56911,0.57134 0 0 0 -1.13822,0l0,2.28535a0.56911,0.57134 0 0 1 -0.56911,0.57134l-2.27644,0a0.56911,0.57134 0 0 0 0,1.14268l2.27644,0a1.70733,1.71402 0 0 0 1.70733,-1.71402l0,-2.28535z"/>
    <path d="m0,2.28535a2.27644,2.28535 0 0 1 2.27644,-2.28535l11.38218,0a2.27644,2.28535 0 0 1 2.27644,2.28535l0,11.42677a2.27644,2.28535 0 0 1 -2.27644,2.28535l-11.38218,0a2.27644,2.28535 0 0 1 -2.27644,-2.28535l0,-11.42677zm1.13822,0l0,11.42677a1.13822,1.14268 0 0 0 1.13822,1.14268l11.38218,0a1.13822,1.14268 0 0 0 1.13822,-1.14268l0,-11.42677a1.13822,1.14268 0 0 0 -1.13822,-1.14268l-11.38218,0a1.13822,1.14268 0 0 0 -1.13822,1.14268z"/>
    <path d="m6.56183,4.65755a0.56911,0.57134 0 0 0 -0.87074,0.4845l0,5.88479a0.56911,0.57134 0 0 0 0.88326,0.4765l4.55287,-3.02695a0.56911,0.57134 0 0 0 -0.01138,-0.95985l-4.55287,-2.85898l-0.00114,0z"/>
  </g>
</svg>