<svg xmlns="http://www.w3.org/2000/svg" xmlns:xlink="http://www.w3.org/1999/xlink" width="16" height="16" style="fill: context-fill; fill-opacity: context-fill-opacity;" preserveAspectRatio="xMidYMid meet" viewBox="0 0 14 14">
  <g>
    <path d="m0,2.5a2.5,2.5 0 0 1 2.5,-2.5l9,0a2.5,2.5 0 0 1 2.5,2.5l0,9a2.5,2.5 0 0 1 -2.5,2.5l-9,0a2.5,2.5 0 0 1 -2.5,-2.5l0,-9zm2.5,-1.5a1.5,1.5 0 0 0 -1.5,1.5l0,0.5l12,0l0,-0.5a1.5,1.5 0 0 0 -1.5,-1.5l-9,0zm10.5,3l-12,0l0,7.5a1.5,1.5 0 0 0 1.5,1.5l9,0a1.5,1.5 0 0 0 1.5,-1.5l0,-7.5z"/>
  </g>
</svg>