<svg xmlns="http://www.w3.org/2000/svg" xmlns:xlink="http://www.w3.org/1999/xlink" width="16" height="16" style="fill: context-fill; fill-opacity: context-fill-opacity;" preserveAspectRatio="xMidYMid meet" viewBox="0 0 16 16">
  <g>
    <path d="m8,0a8,8 0 1 1 0,16a8,8 0 0 1 0,-16zm0,1a7,7 0 1 0 0,14a7,7 0 0 0 0,-14zm3.358,4.646a0.5,0.5 0 0 1 0.058,0.638l-0.058,0.07l-4.004,4.004a0.5,0.5 0 0 1 -0.638,0.058l-0.07,-0.058l-2,-2a0.5,0.5 0 0 1 0.638,-0.765l0.07,0.058l1.646,1.647l3.651,-3.652a0.5,0.5 0 0 1 0.707,0z"/>
  </g>
</svg>