<svg xmlns="http://www.w3.org/2000/svg" xmlns:xlink="http://www.w3.org/1999/xlink" width="16" height="16" style="fill: context-fill; fill-opacity: context-fill-opacity;" preserveAspectRatio="xMidYMid meet" viewBox="0 0 16 16">
  <g>
    <path d="m2,3c0,-1.007 0.875,-1.755 1.904,-2.223c1.074,-0.488 2.523,-0.777 4.096,-0.777s3.022,0.289 4.096,0.777c1.029,0.468 1.904,1.216 1.904,2.223l0,10c0,1.007 -0.875,1.755 -1.904,2.223c-1.074,0.487 -2.523,0.777 -4.096,0.777s-3.022,-0.289 -4.096,-0.777c-1.029,-0.468 -1.904,-1.216 -1.904,-2.223l0,-10zm1,0c0,0.374 0.356,0.875 1.318,1.313c0.916,0.416 2.218,0.687 3.682,0.687s2.766,-0.27 3.682,-0.687c0.962,-0.438 1.318,-0.94 1.318,-1.313c0,-0.374 -0.356,-0.875 -1.318,-1.313c-0.916,-0.416 -2.218,-0.687 -3.682,-0.687s-2.766,0.27 -3.682,0.687c-0.962,0.438 -1.318,0.94 -1.318,1.313zm10,1.698a4.92,4.92 0 0 1 -0.904,0.525c-1.074,0.488 -2.523,0.777 -4.096,0.777s-3.022,-0.289 -4.096,-0.777a4.92,4.92 0 0 1 -0.904,-0.525l0,8.302c0,0.374 0.356,0.875 1.318,1.313c0.916,0.416 2.218,0.687 3.682,0.687s2.766,-0.27 3.682,-0.687c0.962,-0.438 1.318,-0.94 1.318,-1.313l0,-8.302z"/>
  </g>
</svg>