<svg xmlns="http://www.w3.org/2000/svg" xmlns:xlink="http://www.w3.org/1999/xlink" width="16" height="16" style="fill: context-fill; fill-opacity: context-fill-opacity;" preserveAspectRatio="xMidYMid meet" viewBox="0 0 14 14">
  <g>
    <path d="m4,0a2,2 0 0 0 -2,2l0,10a2,2 0 0 0 2,2l6,0a2,2 0 0 0 2,-2l0,-7.586a1.5,1.5 0 0 0 -0.44,-1.06l-2.913,-2.915a1.5,1.5 0 0 0 -1.061,-0.439l-3.586,0zm-1,2a1,1 0 0 1 1,-1l3,0l0,2.5a1.5,1.5 0 0 0 1.5,1.5l2.5,0l0,7a1,1 0 0 1 -1,1l-6,0a1,1 0 0 1 -1,-1l0,-10zm7.793,2l-2.293,0a0.5,0.5 0 0 1 -0.5,-0.5l0,-2.293l2.793,2.793z"/>
  </g>
</svg>