<svg xmlns="http://www.w3.org/2000/svg" xmlns:xlink="http://www.w3.org/1999/xlink" width="16" height="16" style="fill: context-fill; fill-opacity: context-fill-opacity;" preserveAspectRatio="xMidYMid meet" viewBox="0 0 20 20">
  <g>
    <path d="m16.5,18.49609a0.75,0.75 0 1 1 0,1.5l-13,0.004a0.75,0.75 0 1 1 0,-1.5l13,-0.004zm-6.602,-18.488l0.102,-0.007a0.75,0.75 0 0 1 0.743,0.648l0.007,0.102l-0.001,13.685l3.722,-3.72a0.75,0.75 0 0 1 0.976,-0.073l0.085,0.073a0.75,0.75 0 0 1 0.072,0.976l-0.073,0.084l-4.997,4.997a0.75,0.75 0 0 1 -0.976,0.073l-0.085,-0.073l-5.003,-4.996a0.75,0.75 0 0 1 0.976,-1.134l0.084,0.072l3.719,3.714l0.001,-13.678a0.75,0.75 0 0 1 0.648,-0.743l0.102,-0.007l-0.102,0.007z"/>
  </g>
</svg>