<svg xmlns="http://www.w3.org/2000/svg" xmlns:xlink="http://www.w3.org/1999/xlink" width="16" height="16" style="fill: context-fill; fill-opacity: context-fill-opacity;" preserveAspectRatio="xMidYMid meet" viewBox="0 0 16 16">
  <g>
    <path d="m0.854,0.146a0.5,0.5 0 1 0 -0.708,0.708l3.5,3.498a8.097,8.097 0 0 0 -3.366,5.046a0.5,0.5 0 1 0 0.98,0.204a7.09,7.09 0 0 1 3.107,-4.528l1.586,1.586a3.5,3.5 0 1 0 4.886,4.886l4.307,4.308a0.5,0.5 0 0 0 0.708,-0.708l-15,-15zm9.265,10.68a2.5,2.5 0 1 1 -3.446,-3.446l3.446,3.447l0,-0.001z"/>
    <path d="m8.123,6.002l3.375,3.374a3.5,3.5 0 0 0 -3.374,-3.374l-0.001,0z"/>
    <path d="m8,4c-0.57,0 -1.129,0.074 -1.666,0.213l-0.803,-0.803a7.648,7.648 0 0 1 2.469,-0.41c3.693,0 6.942,2.673 7.72,6.398a0.5,0.5 0 0 1 -0.98,0.204c-0.682,-3.275 -3.533,-5.602 -6.74,-5.602z"/>
  </g>
</svg>