<svg xmlns="http://www.w3.org/2000/svg" xmlns:xlink="http://www.w3.org/1999/xlink" width="16" height="16" style="fill: context-fill; fill-opacity: context-fill-opacity;" preserveAspectRatio="xMidYMid meet" viewBox="0 0 16 16">
  <g>
    <path d="m1.5,-0.00009l0.09,0.008a0.5,0.5 0 0 1 0.402,0.402l0.008,0.09l0,2.212a8,8 0 1 1 -1.865,6.75a10.314,10.314 0 0 1 -0.13,-1.98a0.5,0.5 0 0 1 0.998,0.042a9.36,9.36 0 0 0 0.114,1.755a7,7 0 1 0 1.141,-5.28l3.242,0.001l0.09,0.008a0.5,0.5 0 0 1 0,0.984l-0.09,0.008l-4,0l-0.09,-0.008a0.5,0.5 0 0 1 -0.402,-0.402l-0.008,-0.09l0,-4l0.008,-0.09a0.5,0.5 0 0 1 0.402,-0.402l0.09,-0.008zm6,4l0.09,0.008a0.5,0.5 0 0 1 0.402,0.402l0.008,0.09l0,4.004l2,0l0.09,0.008a0.5,0.5 0 0 1 0,0.984l-0.09,0.008l-2.5,0l-0.09,-0.008a0.5,0.5 0 0 1 -0.402,-0.402l-0.008,-0.09l0,-4.504l0.008,-0.09a0.5,0.5 0 0 1 0.402,-0.402l0.09,-0.008z"/>
  </g>
</svg>