<svg xmlns="http://www.w3.org/2000/svg" xmlns:xlink="http://www.w3.org/1999/xlink" width="16" height="16" style="fill: context-fill; fill-opacity: context-fill-opacity;" preserveAspectRatio="xMidYMid meet" viewBox="0 0 22 22">
  <g>
    <path d="m18.75,0a3.25,3.25 0 0 1 3.25,3.25l0,15.5a3.25,3.25 0 0 1 -3.25,3.25l-15.5,0a3.25,3.25 0 0 1 -3.25,-3.25l0,-15.5a3.25,3.25 0 0 1 3.25,-3.25l15.5,0zm0.583,20.4l-7.807,-7.68a0.75,0.75 0 0 0 -0.968,-0.07l-0.084,0.07l-7.808,7.68c0.183,0.065 0.38,0.1 0.584,0.1l15.5,0c0.204,0 0.4,-0.035 0.583,-0.1l-7.807,-7.68l7.807,7.68zm-0.583,-18.9l-15.5,0a1.75,1.75 0 0 0 -1.75,1.75l0,15.5c0,0.208 0.036,0.408 0.103,0.593l7.82,-7.692a2.25,2.25 0 0 1 3.026,-0.117l0.129,0.117l7.82,7.692c0.066,-0.185 0.102,-0.385 0.102,-0.593l0,-15.5a1.75,1.75 0 0 0 -1.75,-1.75zm-3.25,3a2.5,2.5 0 1 1 0,5a2.5,2.5 0 0 1 0,-5zm0,1.5a1,1 0 1 0 0,2a1,1 0 0 0 0,-2z"/>
  </g>
</svg>