<svg xmlns="http://www.w3.org/2000/svg" xmlns:xlink="http://www.w3.org/1999/xlink" width="16" height="16" style="fill: context-fill; fill-opacity: context-fill-opacity;" preserveAspectRatio="xMidYMid meet" viewBox="0 0 24 24">
  <g>
    <path d="m9,6a0.75,0.75 0 0 1 0.102,1.493l-0.102,0.007l-3,0a4.5,4.5 0 0 0 -0.212,8.995l0.212,0.005l3,0a0.75,0.75 0 0 1 0.102,1.493l-0.102,0.007l-3,0a6,6 0 0 1 -0.225,-11.996l0.225,-0.004l3,0zm9,0a6,6 0 0 1 0.225,11.996l-0.225,0.004l-3,0a0.75,0.75 0 0 1 -0.102,-1.493l0.102,-0.007l3,0a4.5,4.5 0 0 0 0.212,-8.995l-0.212,-0.005l-3,0a0.75,0.75 0 0 1 -0.102,-1.493l0.102,-0.007l3,0zm-12,5.25l12,0a0.75,0.75 0 0 1 0.102,1.493l-0.102,0.007l-12,0a0.75,0.75 0 0 1 -0.102,-1.493l0.102,-0.007l12,0l-12,0z"/>
  </g>
</svg>