<svg xmlns="http://www.w3.org/2000/svg" xmlns:xlink="http://www.w3.org/1999/xlink" width="16" height="16" style="fill: context-fill; fill-opacity: context-fill-opacity;" preserveAspectRatio="xMidYMid meet" viewBox="0 0 16 16">
  <g>
    <path d="m5.5,0a2.5,2.5 0 0 0 -2.5,2.5l0,8a2.5,2.5 0 0 0 2.5,2.5l8,0a2.5,2.5 0 0 0 2.5,-2.5l0,-8a2.5,2.5 0 0 0 -2.5,-2.5l-8,0zm9.5,2.5l0,0.5l-6.5,0a0.5,0.5 0 0 1 -0.5,-0.5l0,-1.5l5.5,0a1.5,1.5 0 0 1 1.5,1.5zm-8,0a1.5,1.5 0 0 0 1.5,1.5l6.5,0l0,6.5a1.5,1.5 0 0 1 -1.5,1.5l-8,0a1.5,1.5 0 0 1 -1.5,-1.5l0,-8a1.5,1.5 0 0 1 1.5,-1.5l1.5,0l0,1.5z"/>
    <path d="m10.5,16a2.5,2.5 0 0 0 2.45,-2l-1.035,0a1.5,1.5 0 0 1 -1.415,1l-6.5,0a3,3 0 0 1 -3,-3l0,-6.5a1.5,1.5 0 0 1 1,-1.415l0,-1.035a2.5,2.5 0 0 0 -2,2.45l0,6.5a4,4 0 0 0 4,4l6.5,0z"/>
  </g>
</svg>