<svg xmlns="http://www.w3.org/2000/svg" xmlns:xlink="http://www.w3.org/1999/xlink" width="16" height="16" style="fill: context-fill; fill-opacity: context-fill-opacity;" preserveAspectRatio="xMidYMid meet" viewBox="0 0 16 16">
  <g>
    <path d="m2.5,0a2.5,2.5 0 0 0 -2.5,2.5l0,9a2.5,2.5 0 0 0 2.5,2.5l4.66,0a3.522,3.522 0 0 1 -0.16,-1l-4.5,0a1.5,1.5 0 0 1 -1.5,-1.5l0,-9a1.5,1.5 0 0 1 1.5,-1.5l9,0a1.5,1.5 0 0 1 1.5,1.5l0,1.645c0.361,0.107 0.698,0.272 1,0.482l0,-2.127a2.5,2.5 0 0 0 -2.5,-2.5l-9,0z"/>
   <path id="svg_3" d="m10.5,7.5a1.5,1.5 0 0 0 1.5,1.5l2,0a2.5,2.5 0 1 1 0,-3l-2,0a1.5,1.5 0 0 0 -1.5,1.5z"/>
    <path d="m9.181,12.193c0.12,-0.133 0.254,-0.193 0.369,-0.193l6.317,0a1.779,1.779 0 0 0 -0.3,-0.471c-0.262,-0.294 -0.652,-0.529 -1.117,-0.529l-4.9,0c-0.465,0 -0.855,0.235 -1.116,0.529c-0.26,0.291 -0.434,0.686 -0.434,1.091l0,0.32c0,1.634 1.633,3.06 4,3.06c1.24,0 2.28,-0.392 2.988,-1l-2.988,0c-2.03,0 -3,-1.171 -3,-2.06l0,-0.32c0,-0.125 0.06,-0.29 0.181,-0.427z"/>
    <path d="m14.5,7.5c0,0.171 -0.017,0.338 -0.05,0.5l-2.45,0l0,-1l2.45,0c0.033,0.162 0.05,0.329 0.05,0.5z"/>
    <path d="m15.761,14l-3.761,0l0,-1l4,0c-0.01,0.347 -0.091,0.685 -0.239,1z"/>
  </g>
</svg>