<svg xmlns="http://www.w3.org/2000/svg" xmlns:xlink="http://www.w3.org/1999/xlink" width="16" height="16" style="fill: context-fill; fill-opacity: context-fill-opacity;" preserveAspectRatio="xMidYMid meet" viewBox="0 0 20 20">
  <g>
    <path d="m14.63964,15.527a0.75,0.75 0 0 1 -0.11,1.055l-4,3.25a0.75,0.75 0 0 1 -0.946,0l-4,-3.25a0.75,0.75 0 1 1 0.946,-1.164l3.527,2.866l3.527,-2.866a0.75,0.75 0 0 1 1.056,0.11l0,-0.001zm-11.657,-8.042c0.543,0 0.957,0.178 1.244,0.535c0.288,0.356 0.434,0.869 0.441,1.536l0,0.916c0,0.688 -0.142,1.215 -0.427,1.58c-0.285,0.364 -0.702,0.546 -1.25,0.546c-0.543,0 -0.958,-0.179 -1.245,-0.537c-0.287,-0.357 -0.434,-0.87 -0.44,-1.538l0,-0.916c-0.001,-0.695 0.143,-1.222 0.431,-1.582c0.289,-0.36 0.704,-0.54 1.246,-0.54zm4.016,0c0.543,0 0.957,0.178 1.245,0.535c0.287,0.356 0.434,0.869 0.44,1.536l0,0.916c0,0.688 -0.142,1.215 -0.427,1.58c-0.285,0.364 -0.702,0.546 -1.25,0.546c-0.543,0 -0.958,-0.179 -1.245,-0.537c-0.287,-0.357 -0.434,-0.87 -0.44,-1.538l0,-0.916c0,-0.695 0.143,-1.222 0.432,-1.582c0.288,-0.36 0.703,-0.54 1.245,-0.54zm5.992,0c0.542,0 0.957,0.178 1.244,0.535c0.287,0.356 0.434,0.869 0.441,1.536l0,0.916c0,0.688 -0.142,1.215 -0.427,1.58c-0.285,0.364 -0.702,0.546 -1.251,0.546c-0.542,0 -0.957,-0.179 -1.244,-0.537c-0.287,-0.357 -0.434,-0.87 -0.441,-1.538l0,-0.916c0,-0.695 0.144,-1.222 0.432,-1.582c0.288,-0.36 0.704,-0.54 1.246,-0.54zm4.016,0c0.543,0 0.957,0.178 1.244,0.535c0.287,0.356 0.434,0.869 0.441,1.536l0,0.916c0,0.688 -0.142,1.215 -0.427,1.58c-0.285,0.364 -0.702,0.546 -1.251,0.546c-0.542,0 -0.957,-0.179 -1.244,-0.537c-0.287,-0.357 -0.434,-0.87 -0.441,-1.538l0,-0.916c0,-0.695 0.144,-1.222 0.432,-1.582c0.289,-0.36 0.704,-0.54 1.246,-0.54zm-6.95,3.515c0.162,0 0.296,0.049 0.402,0.147a0.497,0.497 0 0 1 0.159,0.383a0.49,0.49 0 0 1 -0.157,0.378a0.571,0.571 0 0 1 -0.403,0.145a0.566,0.566 0 0 1 -0.4,-0.146a0.49,0.49 0 0 1 -0.158,-0.377c0,-0.157 0.053,-0.285 0.16,-0.383a0.564,0.564 0 0 1 0.397,-0.147zm-7.074,-2.715c-0.232,0 -0.404,0.09 -0.514,0.268c-0.11,0.179 -0.17,0.459 -0.176,0.84l0,1.21c0,0.405 0.055,0.706 0.166,0.903c0.11,0.197 0.287,0.296 0.531,0.296c0.242,0 0.416,-0.095 0.523,-0.284c0.107,-0.19 0.163,-0.478 0.168,-0.868l0,-1.183c0,-0.412 -0.057,-0.712 -0.17,-0.9c-0.112,-0.188 -0.288,-0.282 -0.528,-0.282zm4.016,0c-0.232,0 -0.404,0.09 -0.514,0.268c-0.11,0.179 -0.17,0.459 -0.176,0.84l0,1.21c0,0.405 0.055,0.706 0.166,0.903c0.11,0.197 0.287,0.296 0.531,0.296c0.242,0 0.416,-0.095 0.523,-0.284c0.107,-0.19 0.163,-0.478 0.168,-0.868l0,-1.183c0,-0.412 -0.057,-0.712 -0.17,-0.9c-0.112,-0.188 -0.288,-0.282 -0.528,-0.282zm5.992,0c-0.232,0 -0.404,0.09 -0.514,0.268c-0.11,0.179 -0.17,0.459 -0.176,0.84l0,1.21c0,0.405 0.055,0.706 0.165,0.903c0.11,0.197 0.288,0.296 0.532,0.296c0.241,0 0.416,-0.095 0.523,-0.284c0.107,-0.19 0.163,-0.478 0.167,-0.868l0,-1.183c0,-0.412 -0.056,-0.712 -0.169,-0.9c-0.113,-0.188 -0.289,-0.282 -0.528,-0.282zm4.016,0c-0.232,0 -0.404,0.09 -0.514,0.268c-0.092,0.149 -0.148,0.368 -0.169,0.657l-0.007,0.182l0,1.21c0,0.406 0.055,0.707 0.165,0.904c0.111,0.197 0.288,0.296 0.532,0.296c0.242,0 0.416,-0.095 0.523,-0.284c0.09,-0.158 0.143,-0.385 0.16,-0.682l0.008,-0.186l0,-1.183c0,-0.412 -0.057,-0.712 -0.17,-0.9c-0.113,-0.188 -0.289,-0.282 -0.528,-0.282zm-6.95,-0.085c0.162,0 0.296,0.049 0.402,0.147a0.497,0.497 0 0 1 0.159,0.382a0.49,0.49 0 0 1 -0.157,0.378a0.571,0.571 0 0 1 -0.403,0.145a0.566,0.566 0 0 1 -0.4,-0.145a0.49,0.49 0 0 1 -0.158,-0.378c0,-0.157 0.053,-0.284 0.16,-0.382a0.564,0.564 0 0 1 0.397,-0.147zm-4.471,-4.782l4,-3.25a0.75,0.75 0 0 1 0.85,-0.066l0.095,0.066l4,3.25a0.75,0.75 0 0 1 -0.854,1.228l-0.091,-0.064l-3.529,-2.866l-3.527,2.866a0.75,0.75 0 0 1 -1.026,-1.088l0.08,-0.076l4,-3.25l-4,3.25l0.002,0z"/>
  </g>
</svg>