<svg xmlns="http://www.w3.org/2000/svg" xmlns:xlink="http://www.w3.org/1999/xlink" width="16" height="16" style="fill: context-fill; fill-opacity: context-fill-opacity;" preserveAspectRatio="xMidYMid meet" viewBox="0 0 16 16">
  <g>
    <path d="m0.854,0.146a0.5,0.5 0 1 0 -0.708,0.708l4.75,4.75l-2.878,1.15a1,1 0 0 0 -0.335,1.636l2.61,2.61l-3.293,3.293l0,0.707l0.707,0l3.293,-3.293l2.61,2.61a1,1 0 0 0 1.636,-0.335l1.15,-2.878l4.75,4.75a0.5,0.5 0 0 0 0.708,-0.708l-15,-15zm8.774,10.189l-1.31,3.275l-5.928,-5.927l3.275,-1.31l3.963,3.962zm1.329,-1.622a2.553,2.553 0 0 0 -0.08,0.042l0.743,0.744l3.242,-1.621a2,2 0 0 0 0.52,-3.203l-4.057,-4.057a2,2 0 0 0 -3.203,0.52l-1.62,3.242l0.743,0.744c0.015,-0.027 0.029,-0.053 0.042,-0.08l1.73,-3.459a1,1 0 0 1 1.601,-0.26l4.057,4.057a1,1 0 0 1 -0.26,1.602l-3.458,1.729z"/>
  </g>
</svg>