<svg xmlns="http://www.w3.org/2000/svg" xmlns:xlink="http://www.w3.org/1999/xlink" width="16" height="16" style="fill: context-fill; fill-opacity: context-fill-opacity;" preserveAspectRatio="xMidYMid meet" viewBox="0 0 16 16">
  <g>
    <path d="m8.05859,5.46289a0.5,0.5 0 0 1 0.5,0.5l0,4a0.5,0.5 0 0 1 -1,0l0,-4a0.5,0.5 0 0 1 0.5,-0.5z"/>
    <path d="m8.05859,12.96289a0.75,0.75 0 1 0 0,-1.5a0.75,0.75 0 0 0 0,1.5z"/>
    <path d="m6.74459,1.31489a1.5,1.5 0 0 1 2.628,0l6.56,11.925a1.5,1.5 0 0 1 -1.316,2.223l-13.118,0a1.5,1.5 0 0 1 -1.314,-2.223l6.56,-11.925zm1.752,0.482a0.5,0.5 0 0 0 -0.876,0l-6.559,11.926a0.5,0.5 0 0 0 0.438,0.741l13.119,0a0.5,0.5 0 0 0 0.438,-0.74l-6.56,-11.928l0,0.001z"/>
  </g>
</svg>