<svg xmlns="http://www.w3.org/2000/svg" xmlns:xlink="http://www.w3.org/1999/xlink" width="16" height="16" style="fill: context-fill; fill-opacity: context-fill-opacity;" preserveAspectRatio="xMidYMid meet" viewBox="0 0 16 16">
  <g>
    <path d="m7.01563,4.5a4.5,4.5 0 0 1 6.352,-4.102a0.5,0.5 0 0 1 0.148,0.809l-2.293,2.293l1.293,1.293l2.293,-2.293a0.5,0.5 0 0 1 0.81,0.147a4.5,4.5 0 0 1 -5.207,6.216l-6.366,6.448a2.357,2.357 0 0 1 -3.374,-3.293l6.426,-6.658a4.52,4.52 0 0 1 -0.082,-0.86zm4.5,-3.5a3.5,3.5 0 0 0 -3.387,4.386a0.5,0.5 0 0 1 -0.124,0.473l-6.613,6.854a1.357,1.357 0 0 0 1.943,1.896l6.574,-6.66a0.5,0.5 0 0 1 0.512,-0.124a3.5,3.5 0 0 0 4.521,-4.044l-2.072,2.073a0.5,0.5 0 0 1 -0.707,0l-2,-2a0.5,0.5 0 0 1 0,-0.708l2.072,-2.072a3.516,3.516 0 0 0 -0.719,-0.074z"/>
  </g>
</svg>