<svg xmlns="http://www.w3.org/2000/svg" width="64" height="64" viewBox="0 0 64 64">
  <defs>
    <style>
      .style-puzzle-piece {
        fill: url('#gradient-linear-puzzle-piece');
      }
      .style-badge-shadow {
        fill: #0d131a;
        fill-opacity: .15;
      }
      .style-badge-background {
        fill: #fff;
      }
      .style-badge-inside {
        fill: #ffcd02;
      }
      .style-badge-icon {
        fill: #fff;
      }
    </style>
    <linearGradient id="gradient-linear-puzzle-piece" x1="0%" y1="0%" x2="0%" y2="100%">
      <stop offset="0%" stop-color="#999999" stop-opacity="1"/>
      <stop offset="100%" stop-color="#8c8c8c" stop-opacity="1"/>
    </linearGradient>
  </defs>
  <path class="style-puzzle-piece" d="m37.32092,0a9.21735,7.86838 0 0 1 9.21735,7.86838l-0.00373,1.68836l13.1767,0a3.73172,3.18558 0 0 1 3.73172,3.18558l-0.00373,11.14634l-5.70953,0.00319a9.21735,7.86838 0 0 0 -9.19496,7.34913l-0.01866,0.51925l0,0.19113a9.21735,7.86838 0 0 0 8.60908,7.85245l0.60827,0.01593l5.7058,-0.00319l0.00373,11.16227a3.73172,3.18558 0 0 1 -3.73172,3.18558l-13.1767,-0.00319l0,1.68199a9.21735,7.86838 0 1 1 -18.43096,0l0,-1.68199l-13.17297,0a3.73172,3.18558 0 0 1 -3.73172,-3.18558l-0.00373,-11.24828l-1.97781,0a9.21735,7.86838 0 0 1 0,-15.73676l1.98154,0l0,-11.24828a3.73172,3.18558 0 0 1 3.73172,-3.18558l13.17297,0l0,-1.68836a9.21735,7.86838 0 0 1 9.21735,-7.86838z"/>
  <svg width="32" height="32" x="32" y="0">
    <path class="style-badge-shadow" d="M29.5,25.8L18.7,4c-0.6-1.2-1.6-2-2.7-2c-1.1,0-2.1,0.7-2.7,2L2.5,25.8 c-0.6,1.2-0.6,2.5-0.1,3.6C2.9,30.4,4,31,5.2,31h21.6c1.2,0,2.3-0.6,2.8-1.6C30.2,28.4,30.1,27.1,29.5,25.8z"/>
    <path class="style-badge-background" d="M16,0c-1.7,0-3.2,1-4.1,2.7L1.7,21.9c-0.9,1.7-0.9,3.4,0,4.8C2.5,28.2,4.1,29,5.9,29H26 c1.9,0,3.4-0.8,4.3-2.2c0.9-1.4,0.8-3.2,0-4.8L20.1,2.7C19.2,1,17.7,0,16,0L16,0z"/>
    <path class="style-badge-inside" d="M5.9,26c-1.7,0-2.4-1.2-1.6-2.7L14.6,4.1c0.8-1.5,2.1-1.5,2.8,0l10.3,19.3 c0.8,1.5,0.1,2.7-1.6,2.7H5.9z"/>
    <path class="style-badge-icon" d="M14.9,17.6c0,0,0.1,0.7,1.1,0.7c1,0,1.1-0.7,1.1-0.7 s0.7-2.9,0.8-4.2c0.1-1.3,0.5-3.2-1.9-3.2c-2.4,0-2,1.9-1.9,3.2C14.2,14.8,14.9,17.6,14.9,17.6z M16,20c-1.1,0-2,0.9-2,2 c0,1.1,0.9,2,2,2c1.1,0,2-0.9,2-2C18,20.9,17.1,20,16,20z"/>
  </svg>
</svg>