<svg xmlns="http://www.w3.org/2000/svg" width="16" height="16">
  <path style="fill:context-fill;fill-opacity:context-fill-opacity" d="m4.2171,1.69791c1.537,-0.741 4.817,-1.437 8.51,0.969a0.5,0.5 0 1 0 0.546,-0.838c-4.037,-2.63 -7.697,-1.897 -9.49,-1.031a0.5,0.5 0 1 0 0.434,0.9zm-1.808,0.642a0.5,0.5 0 0 1 -0.143,0.692c-0.523,0.344 -1.11,1.085 -1.335,1.47a0.5,0.5 0 1 1 -0.862,-0.507c0.27,-0.46 0.95,-1.34 1.648,-1.799a0.5,0.5 0 0 1 0.692,0.144zm5.591,-0.052a0.5,0.5 0 1 0 0,1c1.656,0 5.514,1.376 6.51,6.553a0.5,0.5 0 1 0 0.981,-0.188c-1.098,-5.712 -5.423,-7.365 -7.49,-7.365l-0.001,0zm-1.155,6.261c-0.87,0.707 -1.527,2.686 0.558,6.456a0.5,0.5 0 1 1 -0.876,0.484c-2.148,-3.886 -1.778,-6.526 -0.313,-7.716c1.424,-1.156 3.67,-0.655 4.283,1.324c0.081,0.263 0.146,0.578 0.21,0.893l0.033,0.158c0.08,0.379 0.168,0.775 0.298,1.174c0.259,0.793 0.676,1.572 1.481,2.167a0.5,0.5 0 0 1 -0.594,0.804c-1.027,-0.758 -1.539,-1.746 -1.838,-2.66a11.878,11.878 0 0 1 -0.326,-1.281l-0.034,-0.168a9.004,9.004 0 0 0 -0.186,-0.792c-0.389,-1.257 -1.786,-1.582 -2.696,-0.843zm6.154,1.17a0.5,0.5 0 1 0 -0.998,0.055c0.098,1.808 1.216,2.746 1.846,2.949a0.5,0.5 0 0 0 0.306,-0.952c-0.227,-0.073 -1.077,-0.648 -1.154,-2.051l0,-0.001zm-4.499,0.529a0.5,0.5 0 1 0 -1,0c0,1.045 0.129,1.851 0.437,2.638c0.304,0.775 0.772,1.504 1.405,2.4a0.5,0.5 0 1 0 0.817,-0.576c-0.628,-0.89 -1.035,-1.535 -1.291,-2.19c-0.252,-0.641 -0.368,-1.317 -0.368,-2.272zm-3.03,-3.71c-1.716,1.328 -2.702,4.142 -1.022,7.486a0.5,0.5 0 0 1 -0.894,0.448c-1.871,-3.721 -0.833,-7.071 1.302,-8.724c1.061,-0.821 2.39,-1.216 3.727,-1c1.342,0.218 2.637,1.044 3.643,2.557a0.5,0.5 0 1 1 -0.833,0.554c-0.875,-1.317 -1.941,-1.956 -2.97,-2.123c-1.035,-0.168 -2.09,0.133 -2.954,0.803l0.001,-0.001zm0.487,-2.996a0.5,0.5 0 1 0 -0.342,-0.94c-4.68,1.7 -5.79,6.186 -5.358,9.217a0.5,0.5 0 1 0 0.99,-0.142c-0.391,-2.738 0.622,-6.65 4.71,-8.135z"/>
</svg>
