<svg xmlns="http://www.w3.org/2000/svg" xmlns:xlink="http://www.w3.org/1999/xlink" width="16" height="16" style="fill: context-fill; fill-opacity: context-fill-opacity;" preserveAspectRatio="xMidYMid meet" viewBox="0 0 16 16">
  <g>
    <path d="m9.09405,0.005a2.25,2.25 0 0 0 -2.075,1.94l-0.007,0.055l-2.512,0l-0.145,0.007a1.5,1.5 0 0 0 -1.355,1.494l-0.002,2.264l-0.057,0.006a2.25,2.25 0 0 0 -1.943,2.231l0.005,0.154a2.25,2.25 0 0 0 1.94,2.075l0.056,0.005l0,2.266l0.008,0.144a1.5,1.5 0 0 0 1.493,1.355l2.014,0l0.006,0.055a2.25,2.25 0 0 0 2.23,1.944l0.154,-0.005a2.25,2.25 0 0 0 2.075,-1.94l0.005,-0.054l2.516,0a1.5,1.5 0 0 0 1.5,-1.5l-0.002,-3.251l-1.751,0.001l-0.123,-0.005a1.246,1.246 0 0 1 -1.126,-1.246l0.005,-0.123a1.246,1.246 0 0 1 1.245,-1.127l1.75,-0.001l0.002,-3.247l-0.007,-0.145a1.5,1.5 0 0 0 -1.493,-1.356l-2.017,0l-0.005,-0.056a2.25,2.25 0 0 0 -2.23,-1.945l-0.154,0.005zm0.154,0.995c0.69,0 1.25,0.56 1.25,1.25l0,0.75l3.002,0.002l0.09,0.008a0.5,0.5 0 0 1 0.41,0.492l-0.002,2.246l-0.751,0.001a2.25,2.25 0 0 0 -2.243,2.066l-0.006,0.165c0,1.194 0.902,2.168 2.066,2.263l0.164,0.007l0.771,-0.002l0,2.254a0.5,0.5 0 0 1 -0.5,0.5l-3.501,-0.002l0.003,0.75a1.25,1.25 0 0 1 -2.5,-0.001l-0.004,-0.749l-2.997,0.002a0.5,0.5 0 0 1 -0.5,-0.5l-0.002,-3.252l-0.752,0.002a1.25,1.25 0 0 1 0.001,-2.5l0.751,-0.002l0.002,-3.248a0.5,0.5 0 0 1 0.5,-0.5l3.498,-0.002l0,-0.75c0,-0.69 0.56,-1.25 1.25,-1.25z"/>
  </g>
</svg>