<svg xmlns="http://www.w3.org/2000/svg" xmlns:xlink="http://www.w3.org/1999/xlink" width="16" height="16" style="fill: context-fill; fill-opacity: context-fill-opacity;" preserveAspectRatio="xMidYMid meet" viewBox="0 0 16 16">
  <g>
    <path d="m4,1l10,0a1,1 0 0 1 1,1l0,7a1,1 0 0 1 -1,1l-7,0l0,1l3,0l0,2l-3,0l0,1l5.5,0a0.5,0.5 0 0 0 0,-1l-1.5,0l0,-2l3,0a2,2 0 0 0 2,-2l0,-7a2,2 0 0 0 -2,-2l-10,0a2,2 0 0 0 -2,2l0,3l1,0l0,-3a1,1 0 0 1 1,-1zm-1.5,12a0.5,0.5 0 0 0 0,1l1,0a0.5,0.5 0 0 0 0,-1l-1,0zm-2.5,-5.5a1.5,1.5 0 0 1 1.5,-1.5l3,0a1.5,1.5 0 0 1 1.5,1.5l0,7a1.5,1.5 0 0 1 -1.5,1.5l-3,0a1.5,1.5 0 0 1 -1.5,-1.5l0,-7zm1.5,-0.5a0.5,0.5 0 0 0 -0.5,0.5l0,7a0.5,0.5 0 0 0 0.5,0.5l3,0a0.5,0.5 0 0 0 0.5,-0.5l0,-7a0.5,0.5 0 0 0 -0.5,-0.5l-3,0z"/>
  </g>
</svg>