<svg xmlns="http://www.w3.org/2000/svg" xmlns:xlink="http://www.w3.org/1999/xlink" width="16" height="16" style="fill: context-fill; fill-opacity: context-fill-opacity;" preserveAspectRatio="xMidYMid meet" viewBox="0 0 16 16">
  <g>
    <path  d="m6.5,8a0.5,0.5 0 0 0 0,1l3,0a0.5,0.5 0 0 0 0,-1l-3,0zm-6.5,-5.25c0,-0.966 0.784,-1.75 1.75,-1.75l12.5,0c0.966,0 1.75,0.784 1.75,1.75l0,1.5c0,0.698 -0.409,1.3 -1,1.582l0,6.168a3,3 0 0 1 -3,3l-8,0a3,3 0 0 1 -3,-3l0,-6.168a1.75,1.75 0 0 1 -1,-1.582l0,-1.5zm1.75,-0.75a0.75,0.75 0 0 0 -0.75,0.75l0,1.5c0,0.414 0.336,0.75 0.75,0.75l12.5,0a0.75,0.75 0 0 0 0.75,-0.75l0,-1.5a0.75,0.75 0 0 0 -0.75,-0.75l-12.5,0zm0.25,4l0,6a2,2 0 0 0 2,2l8,0a2,2 0 0 0 2,-2l0,-6l-12,0z"/>
  </g>
</svg>