<svg xmlns="http://www.w3.org/2000/svg" xmlns:xlink="http://www.w3.org/1999/xlink" width="16" height="16" style="fill: context-fill; fill-opacity: context-fill-opacity;" preserveAspectRatio="xMidYMid meet" viewBox="0 0 17 17">
  <g>
    <path d="m0.85009,5.854l2.644,-2.644l0,11.79a0.5,0.5 0 0 0 1,0l0,-11.795l2.649,2.65a0.5,0.5 0 0 0 0.707,-0.708l-3.49,-3.49l-0.01,-0.01a0.5,0.5 0 0 0 -0.354,-0.147l-0.002,0a0.499,0.499 0 0 0 -0.383,0.179l-3.469,3.468a0.5,0.5 0 1 0 0.708,0.707zm15.293,5.292l-2.644,2.644l0,-11.79a0.5,0.5 0 0 0 -1,0l0,11.795l-2.65,-2.65a0.5,0.5 0 0 0 -0.707,0.708l3.49,3.49l0.01,0.01a0.502,0.502 0 0 0 0.355,0.147l0.002,0a0.5,0.5 0 0 0 0.383,-0.179l3.468,-3.468a0.5,0.5 0 1 0 -0.707,-0.707z"/>
  </g>
</svg>