<svg xmlns="http://www.w3.org/2000/svg" xmlns:xlink="http://www.w3.org/1999/xlink" width="16" height="16" preserveAspectRatio="xMidYMid meet" viewBox="0 0 16 16" style="fill: context-fill; fill-opacity: context-fill-opacity;">
  <g>
    <path d="m10.00091,1.00209c0,-0.873 -1.04,-1.327 -1.68,-0.733l-3.872,3.593a0.5,0.5 0 0 1 -0.34,0.134l-2.608,0a1.5,1.5 0 0 0 -1.5,1.5l0,5a1.5,1.5 0 0 0 1.5,1.5l2.608,0a0.5,0.5 0 0 1 0.34,0.133l3.872,3.594c0.64,0.593 1.68,0.14 1.68,-0.733l0,-13.988zm-4.872,3.593l3.872,-3.593l0,13.988l-3.872,-3.594a1.5,1.5 0 0 0 -1.02,-0.4l-2.608,0a0.5,0.5 0 0 1 -0.5,-0.5l0,-5a0.5,0.5 0 0 1 0.5,-0.5l2.608,0a1.5,1.5 0 0 0 1.02,-0.4l0,-0.001z"/>
    <path d="m11.14691,5.64209a0.5,0.5 0 0 1 0.708,0l1.646,1.647l1.646,-1.647a0.5,0.5 0 1 1 0.708,0.707l-1.647,1.647l1.647,1.646a0.5,0.5 0 1 1 -0.707,0.707l-1.647,-1.646l-1.646,1.646a0.5,0.5 0 1 1 -0.708,-0.707l1.647,-1.646l-1.646,-1.647a0.5,0.5 0 0 1 0,-0.707l-0.001,0z"/>
  </g>
</svg>