<svg xmlns="http://www.w3.org/2000/svg" xmlns:xlink="http://www.w3.org/1999/xlink" width="16" height="16" style="fill: context-fill; fill-opacity: context-fill-opacity;" preserveAspectRatio="xMidYMid meet" viewBox="0 0 16 16">
  <g>
    <path d="m10.00091,1.00209c0,-0.873 -1.04,-1.326 -1.68,-0.733l-3.872,3.594a0.5,0.5 0 0 1 -0.34,0.133l-2.608,0a1.5,1.5 0 0 0 -1.5,1.5l0,5a1.5,1.5 0 0 0 1.5,1.5l2.608,0a0.5,0.5 0 0 1 0.34,0.134l3.872,3.593c0.64,0.594 1.68,0.14 1.68,-0.733l0,-13.988zm-4.872,3.594l3.872,-3.594l0,13.988l-3.872,-3.593a1.5,1.5 0 0 0 -1.02,-0.4l-2.608,0a0.5,0.5 0 0 1 -0.5,-0.5l0,-5a0.5,0.5 0 0 1 0.5,-0.5l2.608,0a1.5,1.5 0 0 0 1.02,-0.401z"/>
    <path d="m13.26091,2.62409a0.5,0.5 0 0 1 0.706,0.039a8,8 0 0 1 0,10.667a0.5,0.5 0 0 1 -0.745,-0.667a7,7 0 0 0 0,-9.333a0.5,0.5 0 0 1 0.039,-0.706z"/>
    <path d="m12.08491,10.93009a0.5,0.5 0 0 1 -0.183,-0.683a4.498,4.498 0 0 0 -0.001,-4.5a0.5,0.5 0 0 1 0.866,-0.5a5.498,5.498 0 0 1 0.001,5.499a0.5,0.5 0 0 1 -0.683,0.184z"/>
  </g>
</svg>