<svg xmlns="http://www.w3.org/2000/svg" xmlns:xlink="http://www.w3.org/1999/xlink" width="16" height="16" style="fill: context-fill; fill-opacity: context-fill-opacity;" preserveAspectRatio="xMidYMid meet" viewBox="0 0 17 17">
  <g>
    <path d="m11,1l-8,0a1,1 0 0 0 -1,1l0,11l4.022,0c0.031,0.343 0.094,0.678 0.185,1l-4.207,0a1,1 0 0 0 1,1l3.6,0c0.183,0.358 0.404,0.693 0.657,1l-4.257,0a2,2 0 0 1 -2,-2l0,-12a2,2 0 0 1 2,-2l8,0a2,2 0 0 1 2,2l0,5.207a5.48,5.48 0 0 0 -1,-0.185l0,-5.022a1,1 0 0 0 -1,-1zm-8,2l0,1a1,1 0 0 0 1,1l6,0a1,1 0 0 0 1,-1l0,-1a1,1 0 0 0 -1,-1l-6,0a1,1 0 0 0 -1,1zm1,0l6,0l0,1l-6,0l0,-1zm12,9.5a4.5,4.5 0 1 1 -9,0a4.5,4.5 0 0 1 9,0zm-4,-2a0.5,0.5 0 0 0 -1,0l0,1.5l-1.5,0a0.5,0.5 0 0 0 0,1l1.5,0l0,1.5a0.5,0.5 0 0 0 1,0l0,-1.5l1.5,0a0.5,0.5 0 0 0 0,-1l-1.5,0l0,-1.5z"/>
  </g>
</svg>