<svg xmlns="http://www.w3.org/2000/svg" viewBox="0 0 16 16" width="16px" height="16px">
  <g>
    <rect height="11.21931" width="1.24659" y="1.92078" x="0.76978" fill="#FBD143"/>
    <rect height="1.96338" width="12.37241" y="3.38552" x="1.82938" fill="#FBD143"/>
    <rect rx="1" height="6.20179" width="5.9213" y="1.85845" x="1.26841" fill="#FBD143"/>
    <rect fill="#FEE082" x="3.31282" y="5.78662" width="10.81177" height="8.49943"/>
    <rect fill="#FEE082" x="13.9371" y="5.78662" width="1.12492" height="5.18715"/>
    <rect fill="#FEE082" x="1.93791" y="8.84891" width="1.68739" height="5.31214"/>
    <rect fill="#FEE082" x="2.75036" y="6.28658" width="0.81245" height="3.68725"/>
    <path fill="#B28501" d="m14.97647,5.07105l0,-0.073a2.5,2.5 0 0 0 -2.5,-2.5l-4.832,0l-1.6,-1.2a1.5,1.5 0 0 0 -0.9,-0.3l-2.664,0a2.5,2.5 0 0 0 -2.5,2.5l0.001,8.998a2.5,2.5 0 0 0 2.201,2.482c0.085,0.014 0.172,0.022 0.26,0.022l10.718,0a1.5,1.5 0 0 0 1.472,-1.214l1.358,-7a1.501,1.501 0 0 0 -1.014,-1.715zm-12.496,-3.073l2.664,0a0.5,0.5 0 0 1 0.3,0.1l1.734,1.3a0.5,0.5 0 0 0 0.3,0.1l4.998,0a1.5,1.5 0 0 1 1.5,1.5l0,0.002l-10.172,0a1.5,1.5 0 0 0 -1.472,1.214l-1.298,6.676a1.502,1.502 0 0 1 -0.054,-0.394l0,-8.998a1.5,1.5 0 0 1 1.5,-1.5zm0.833,4.407a0.5,0.5 0 0 1 0.491,-0.405l10.713,0a0.5,0.5 0 0 1 0.491,0.595l-1.357,7a0.5,0.5 0 0 1 -0.491,0.405l-10.717,0a0.5,0.5 0 0 1 -0.49,-0.595l1.36,-7z"/>
  </g>
</svg>