<svg xmlns="http://www.w3.org/2000/svg" xmlns:xlink="http://www.w3.org/1999/xlink" width="16" height="16" style="fill: context-fill; fill-opacity: context-fill-opacity;" preserveAspectRatio="xMidYMid meet" viewBox="0 0 17 17">
  <g>
    <path d="m16.41,0.15075a0.5,0.5 0 0 1 0,0.707l-5.323,5.321a4.5,4.5 0 0 1 -0.334,5.991l-0.664,0.664l-2.09,3.483a0.5,0.5 0 0 1 -0.781,0.096l-7.072,-7.071a0.5,0.5 0 0 1 0.097,-0.782l3.482,-2.09l0.664,-0.664a4.5,4.5 0 0 1 5.991,-0.334l5.323,-5.322a0.5,0.5 0 0 1 0.707,0l0,0.001zm-11.667,6.717l4.95,4.95l0.353,-0.354a3.5,3.5 0 1 0 -4.95,-4.95l-0.353,0.354zm-0.785,0.63l-2.652,1.59l6.166,6.166l1.59,-2.652l-5.103,-5.103l-0.001,-0.001z"/>
  </g>
</svg>