<svg xmlns="http://www.w3.org/2000/svg" xmlns:xlink="http://www.w3.org/1999/xlink" width="16" height="16" style="fill: context-fill; fill-opacity: context-fill-opacity;" preserveAspectRatio="xMidYMid meet" viewBox="0 0 16 16">
  <g>
    <path d="m12.5,1a2.5,2.5 0 0 1 2.5,2.5l0,9a2.5,2.5 0 0 1 -2.5,2.5l-9,0a2.5,2.5 0 0 1 -2.5,-2.5l0,-9a2.5,2.5 0 0 1 2.5,-2.5l9,0zm0,1l-9,0a1.5,1.5 0 0 0 -1.5,1.5l0,9a1.5,1.5 0 0 0 1.5,1.5l9,0a1.5,1.5 0 0 0 1.5,-1.5l0,-9a1.5,1.5 0 0 0 -1.5,-1.5zm-1.782,5c0.446,0 0.607,0.046 0.77,0.134a0.906,0.906 0 0 1 0.378,0.378c0.088,0.163 0.134,0.324 0.134,0.77l0,2.436c0,0.446 -0.046,0.607 -0.134,0.77a0.908,0.908 0 0 1 -0.378,0.378c-0.162,0.088 -0.324,0.134 -0.77,0.134l-5.436,0c-0.446,0 -0.607,-0.046 -0.77,-0.134a0.908,0.908 0 0 1 -0.378,-0.378c-0.088,-0.162 -0.134,-0.324 -0.134,-0.77l0,-2.436c0,-0.446 0.046,-0.607 0.134,-0.77a0.909,0.909 0 0 1 0.378,-0.378c0.163,-0.088 0.324,-0.134 0.77,-0.134l5.436,0zm0.194,1.002l-5.824,0l-0.08,0.005l-0.006,0.08l0,2.825l0.005,0.08l0.08,0.006l5.825,0l0.08,-0.005l0.006,-0.08l0,-2.825l-0.005,-0.08l-0.08,-0.006l-0.001,0zm0.588,-4.002a0.5,0.5 0 0 1 0.09,0.992l-0.09,0.008l-7,0a0.5,0.5 0 0 1 -0.09,-0.992l0.09,-0.008l7,0z"/>
  </g>
</svg>