<svg xmlns="http://www.w3.org/2000/svg" xmlns:xlink="http://www.w3.org/1999/xlink" width="16" height="16" style="fill: context-fill; fill-opacity: context-fill-opacity;" preserveAspectRatio="xMidYMid meet" viewBox="0 0 16 16">
  <g>
    <path d="m5,9a1,1 0 1 0 0,-2a1,1 0 0 0 0,2zm1,2a1,1 0 1 1 -2,0a1,1 0 0 1 2,0zm2,-2a1,1 0 1 0 0,-2a1,1 0 0 0 0,2zm1,2a1,1 0 1 1 -2,0a1,1 0 0 1 2,0zm2,-2a1,1 0 1 0 0,-2a1,1 0 0 0 0,2zm4,-5.5a2.5,2.5 0 0 0 -2.5,-2.5l-9,0a2.5,2.5 0 0 0 -2.5,2.5l0,9a2.5,2.5 0 0 0 2.5,2.5l9,0a2.5,2.5 0 0 0 2.5,-2.5l0,-9zm-13,1.5l12,0l0,7.5a1.5,1.5 0 0 1 -1.5,1.5l-9,0a1.5,1.5 0 0 1 -1.5,-1.5l0,-7.5zm1.5,-3l9,0a1.5,1.5 0 0 1 1.5,1.5l0,0.5l-12,0l0,-0.5a1.5,1.5 0 0 1 1.5,-1.5z"/>
  </g>
</svg>