<svg xmlns="http://www.w3.org/2000/svg" xmlns:xlink="http://www.w3.org/1999/xlink" width="16" height="16" style="fill: context-fill; fill-opacity: context-fill-opacity;" preserveAspectRatio="xMidYMid meet" viewBox="0 0 16 16">
 <g>
    <path d="m4.77909,0.826a1.5,1.5 0 0 1 1.34,-0.826l3.764,0a1.5,1.5 0 0 1 1.342,0.83l0.585,1.17l1.69,0a2.5,2.5 0 0 1 2.5,2.5l0,2.195a2.853,2.853 0 0 0 -1,-0.56l0,-1.635a1.5,1.5 0 0 0 -1.5,-1.5l-2,0a0.5,0.5 0 0 1 -0.446,-0.276l-0.723,-1.447a0.5,0.5 0 0 0 -0.448,-0.277l-3.764,0a0.5,0.5 0 0 0 -0.447,0.275l-0.728,1.449a0.5,0.5 0 0 1 -0.446,0.275l-1.998,0a1.5,1.5 0 0 0 -1.5,1.5l0,8.001a1.5,1.5 0 0 0 1.5,1.5l3.716,0l-0.163,0.653c-0.029,0.117 -0.047,0.233 -0.054,0.347l-3.5,0a2.5,2.5 0 0 1 -2.5,-2.5l0,-8a2.5,2.5 0 0 1 2.5,-2.5l1.69,0l0.59,-1.174z"/>
    <path d="m11.88309,7.056a4.002,4.002 0 0 0 -7.887,0.944c0,1.89 1.31,3.473 3.072,3.892a3.2,3.2 0 0 1 0.202,-0.222l0.67,-0.67a3,3 0 1 1 3.056,-3.056l0.888,-0.888l-0.001,0z"/>
    <path d="m12.80609,7.548l-4.83,4.83a2.197,2.197 0 0 0 -0.578,1.02l-0.375,1.498a0.89,0.89 0 0 0 1.079,1.078l1.498,-0.374c0.386,-0.097 0.739,-0.296 1.02,-0.578l4.83,-4.83a1.87,1.87 0 0 0 -2.645,-2.644l0.001,0z"/>
  </g>
</svg>