<svg xmlns="http://www.w3.org/2000/svg" xmlns:xlink="http://www.w3.org/1999/xlink" width="16" height="16" style="fill: context-fill; fill-opacity: context-fill-opacity;" preserveAspectRatio="xMidYMid meet" viewBox="0 0 16 16">
  <g>
    <path d="m8,0a8,8 0 1 1 0,16a8,8 0 0 1 0,-16zm0,1a7,7 0 1 0 0,14a7,7 0 0 0 0,-14zm-0.5,2a0.5,0.5 0 0 1 0.492,0.41l0.008,0.09l0,4.5l2.5,0a0.5,0.5 0 0 1 0.09,0.992l-0.09,0.008l-3,0a0.5,0.5 0 0 1 -0.492,-0.41l-0.008,-0.09l0,-5a0.5,0.5 0 0 1 0.5,-0.5z"/>
  </g>
</svg>