<svg xmlns="http://www.w3.org/2000/svg" xmlns:xlink="http://www.w3.org/1999/xlink" width="16" height="16" style="fill: context-fill; fill-opacity: context-fill-opacity;" preserveAspectRatio="xMidYMid meet" viewBox="0 0 16 16">
  <g>
    <path d="m4.401,5.24a2.12,2.12 0 0 1 2.453,0.406a0.5,0.5 0 0 1 -0.708,0.708a1.12,1.12 0 0 0 -1.297,-0.22c-0.412,0.208 -0.849,0.752 -0.849,1.866c0,1.115 0.437,1.66 0.849,1.865c0.429,0.215 0.947,0.132 1.297,-0.219a0.5,0.5 0 0 1 0.708,0.707a2.12,2.12 0 0 1 -2.453,0.407c-0.838,-0.42 -1.401,-1.375 -1.401,-2.76c0,-1.385 0.563,-2.34 1.401,-2.76zm7.953,0.406a2.12,2.12 0 0 0 -2.454,-0.406c-0.837,0.42 -1.4,1.375 -1.4,2.76c0,1.385 0.563,2.34 1.401,2.76a2.12,2.12 0 0 0 2.453,-0.406a0.5,0.5 0 0 0 -0.708,-0.707a1.12,1.12 0 0 1 -1.297,0.218c-0.412,-0.206 -0.849,-0.75 -0.849,-1.865s0.437,-1.66 0.849,-1.865a1.12,1.12 0 0 1 1.297,0.219a0.5,0.5 0 0 0 0.708,-0.708zm-12.354,-0.646a3,3 0 0 1 3,-3l10,0a3,3 0 0 1 3,3l0,6a3,3 0 0 1 -3,3l-10,0a3,3 0 0 1 -3,-3l0,-6zm3,-2a2,2 0 0 0 -2,2l0,6a2,2 0 0 0 2,2l10,0a2,2 0 0 0 2,-2l0,-6a2,2 0 0 0 -2,-2l-10,0z"/>
   </g>
</svg>