<svg xmlns="http://www.w3.org/2000/svg" xmlns:xlink="http://www.w3.org/1999/xlink" width="16" height="16" style="fill: context-fill; fill-opacity: context-fill-opacity;" preserveAspectRatio="xMidYMid meet" viewBox="0 0 14 14">
  <g>
    <path d="m2.64991,6.146a0.5,0.5 0 0 1 0.708,0l2,2a0.5,0.5 0 0 1 0,0.708l-2,2a0.5,0.5 0 0 1 -0.708,-0.708l1.647,-1.646l-1.647,-1.646a0.5,0.5 0 0 1 0,-0.708zm8.854,3.854l-5,0a0.5,0.5 0 0 0 0,1l5,0a0.5,0.5 0 0 0 0,-1zm-11.504,-7.5a2.5,2.5 0 0 1 2.5,-2.5l9,0a2.5,2.5 0 0 1 2.5,2.5l0,0.5l0.004,0l0,1l-0.003,0l0,7.5a2.5,2.5 0 0 1 -2.5,2.5l-9,0a2.5,2.5 0 0 1 -2.5,-2.5l0,-9l-0.001,0zm13,0.5l0,-0.5a1.5,1.5 0 0 0 -1.5,-1.5l-9,0a1.5,1.5 0 0 0 -1.5,1.5l0,0.5l12,0zm-12,1l0,7.5a1.5,1.5 0 0 0 1.5,1.5l9,0a1.5,1.5 0 0 0 1.5,-1.5l0,-7.5l-12,0z"/>
  </g>
</svg>