<svg xmlns="http://www.w3.org/2000/svg" xmlns:xlink="http://www.w3.org/1999/xlink" width="16" height="16" style="fill: context-fill; fill-opacity: context-fill-opacity;" preserveAspectRatio="xMidYMid meet" viewBox="0 0 12 12">
  <g>
    <path d="m4,2l0,1l4,0l0,-1a2,2 0 1 1 2,2l-1,0l0,4l1,0a2,2 0 1 1 -2,2l0,-1l-4,0l0,1a2,2 0 1 1 -2,-2l1,0l0,-4l-1,0a2,2 0 1 1 2,-2zm-1,1l0,-1a1,1 0 1 0 -1,1l1,0zm5,5l0,-4l-4,0l0,4l4,0zm1,1l0,1a1,1 0 1 0 1,-1l-1,0zm1,-6a1,1 0 1 0 -1,-1l0,1l1,0zm-7,6l-1,0a1,1 0 1 0 1,1l0,-1z"/>
  </g>
</svg>