<svg width="16" height="16" xmlns="http://www.w3.org/2000/svg" preserveAspectRatio="xMidYMid meet" style="fill: context-fill; fill-opacity: context-fill-opacity;" viewBox="0 0 14 14">
  <g>
    <path d="m1.5,14a1.5,1.5 0 0 1 -1.5,-1.5l0,-11a1.5,1.5 0 0 1 1.5,-1.5l4.5,0a1.5,1.5 0 0 1 1.5,1.5l0,5l5,0a1.5,1.5 0 0 1 1.5,1.5l0,4.5a1.5,1.5 0 0 1 -1.5,1.5l-11,0zm6,-6.5l0,5.5l5,0a0.5,0.5 0 0 0 0.5,-0.5l0,-4.5a0.5,0.5 0 0 0 -0.5,-0.5l-5,0zm-1,5.5l0,-5.5l-5.5,0l0,5a0.5,0.5 0 0 0 0.5,0.5l5,0zm0,-11.5a0.5,0.5 0 0 0 -0.5,-0.5l-4.5,0a0.5,0.5 0 0 0 -0.5,0.5l0,5l5.5,0l0,-5z"/>
    <path stroke-width="0.6" transform="rotate(-45, 10.7359, 3.12749)" d="m10.38321,5.15932l1.23281,-1.25531l-2.38357,0l-2.38356,0l0,-0.77709l0,-0.77709l2.35622,0c1.29592,0 2.35622,-0.03939 2.35622,-0.08753c0,-0.04814 -0.5159,-0.61303 -1.14645,-1.25531l-1.14645,-1.16778l1.05967,0l1.05967,0l1.61835,1.64543l1.61835,1.64543l-1.62145,1.64228l-1.62145,1.64228l-1.11557,0l-1.11558,0l1.23281,-1.25531l0,0l-0.00002,0z"/>
 </g>
</svg>