<svg xmlns="http://www.w3.org/2000/svg" xmlns:xlink="http://www.w3.org/1999/xlink" width="16" height="16" style="fill: context-fill; fill-opacity: context-fill-opacity;" preserveAspectRatio="xMidYMid meet" viewBox="0 0 16 16">
  <g>
    <path d="m15,12l-11,0a2,2 0 0 1 -2,-2l0,-7a1,1 0 0 0 -2,0l0,7a4,4 0 0 0 4,4l11,0a1,1 0 0 0 0,-2z"/>
    <path d="m3.5,12a1,1 0 0 0 1,-1l0,-2a1,1 0 0 0 -2,0l0,2a1,1 0 0 0 1,1zm3,0a1,1 0 0 0 1,-1l0,-6a1,1 0 0 0 -2,0l0,6a1,1 0 0 0 1,1zm3,0a1,1 0 0 0 1,-1l0,-4a1,1 0 0 0 -2,0l0,4a1,1 0 0 0 1,1zm3,0a1,1 0 0 0 1,-1l0,-3a1,1 0 0 0 -2,0l0,3a1,1 0 0 0 1,1z"/>
  </g>
</svg>