<svg xmlns="http://www.w3.org/2000/svg" xmlns:xlink="http://www.w3.org/1999/xlink" width="16" height="16" style="fill: context-fill; fill-opacity: context-fill-opacity;" preserveAspectRatio="xMidYMid meet" viewBox="0 0 15 17">
  <g>
    <path d="m9,2.5a1.5,1.5 0 0 0 -3,0l-1,0a2.5,2.5 0 0 1 5,0l4.5,0a0.5,0.5 0 0 1 0,1l-0.554,0l-1.296,11.23a2,2 0 0 1 -1.987,1.77l-6.326,0a2,2 0 0 1 -1.987,-1.77l-1.297,-11.23l-0.553,0a0.5,0.5 0 0 1 -0.492,-0.41l-0.008,-0.09a0.5,0.5 0 0 1 0.5,-0.5l8.5,0zm3.938,1l-10.877,0l1.282,11.115a1,1 0 0 0 0.994,0.885l6.326,0a1,1 0 0 0 0.993,-0.885l1.282,-11.115zm-6.938,2.5c0.245,0 0.45,0.155 0.492,0.359l0.008,0.079l0,6.125c0,0.241 -0.224,0.437 -0.5,0.437c-0.245,0 -0.45,-0.155 -0.492,-0.359l-0.008,-0.079l0,-6.123c0,-0.242 0.224,-0.438 0.5,-0.438l0,-0.001zm3,0c0.245,0 0.45,0.155 0.492,0.359l0.008,0.079l0,6.125c0,0.241 -0.224,0.437 -0.5,0.437c-0.245,0 -0.45,-0.155 -0.492,-0.359l-0.008,-0.079l0,-6.123c0,-0.242 0.224,-0.438 0.5,-0.438l0,-0.001z"/>
  </g>
</svg>