<svg xmlns="http://www.w3.org/2000/svg" xmlns:xlink="http://www.w3.org/1999/xlink" width="16" height="16" style="fill: context-fill; fill-opacity: context-fill-opacity;" preserveAspectRatio="xMidYMid meet" viewBox="0 0 16 16">
  <g>
    <path d="m0.39114,0.55986l0.073,-0.084a0.75,0.75 0 0 1 0.976,-0.073l0.084,0.073l6.47,6.469l6.47,-6.47a0.75,0.75 0 1 1 1.06,1.061l-6.469,6.47l6.47,6.47a0.75,0.75 0 0 1 0.072,0.976l-0.073,0.084a0.75,0.75 0 0 1 -0.976,0.073l-0.084,-0.073l-6.47,-6.469l-6.47,6.47a0.75,0.75 0 0 1 -1.06,-1.061l6.469,-6.47l-6.47,-6.47a0.75,0.75 0 0 1 -0.072,-0.976l0.073,-0.084l-0.073,0.084z"/>
  </g>
</svg>