<svg width="20" height="20" viewBox="0 0 24 24" fill="context-fill" fill-opacity="context-fill-opacity" xmlns="http://www.w3.org/2000/svg">
  <g>
    <path d="m17.5,18.49805a0.5,0.5 0 0 0 0.5,-0.5l0,-10l-4.5,0a2,2 0 0 1 -2,-2l0,-4.5l-6,0a0.5,0.5 0 0 0 -0.5,0.5l0,10.627a3.482,3.482 0 0 0 -1.5,-0.592l0,-10.035a2,2 0 0 1 2,-2l6.172,0c0.028,0 0.055,0.004 0.082,0.007c0.02,0.003 0.04,0.006 0.059,0.007c0.215,0.015 0.427,0.056 0.624,0.138c0.057,0.024 0.112,0.056 0.166,0.087l0.05,0.029l0.047,0.024a0.652,0.652 0 0 1 0.081,0.044c0.078,0.053 0.148,0.116 0.219,0.18a0.63,0.63 0 0 0 0.036,0.03a0.491,0.491 0 0 1 0.049,0.04l5.829,5.828a2,2 0 0 1 0.586,1.414l0,10.172a2,2 0 0 1 -2,2l-1.736,0c0.364,-0.413 0.615,-0.93 0.702,-1.5l1.034,0zm-0.622,-12l-3.878,-3.879l0,3.379a0.5,0.5 0 0 0 0.5,0.5l3.378,0zm-5.326,12c0.203,0.86 0.976,1.5 1.898,1.5l0.1,0a1.95,1.95 0 0 0 1.95,-1.95l0,-0.234a1.75,1.75 0 0 0 -0.85,-1.5l-1.529,-0.918a0.25,0.25 0 0 1 -0.121,-0.214l0,-0.234a0.45,0.45 0 0 1 0.45,-0.45l0.1,0a0.45,0.45 0 0 1 0.45,0.45l0,0.05a0.75,0.75 0 0 0 1.5,0l0,-0.05a1.95,1.95 0 0 0 -1.95,-1.95l-0.1,0a1.95,1.95 0 0 0 -1.95,1.95l0,0.234c0,0.614 0.322,1.184 0.85,1.5l1.529,0.918a0.25,0.25 0 0 1 0.121,0.214l0,0.234a0.45,0.45 0 0 1 -0.45,0.45l-0.1,0a0.45,0.45 0 0 1 -0.45,-0.45l0,-0.05a0.75,0.75 0 0 0 -1.5,0l0,0.05c0,0.155 0.018,0.305 0.052,0.45zm-6.102,1.5l0.05,-0.05l0,0.05l-0.05,0zm1.297,-1a1.938,1.938 0 0 1 -0.247,-0.95l0,-0.05a0.75,0.75 0 0 1 1.5,0l0,0.05c0,0.248 0.201,0.45 0.45,0.45l0.1,0a0.45,0.45 0 0 0 0.45,-0.45l0,-0.234a0.25,0.25 0 0 0 -0.121,-0.214l-1.53,-0.918a1.75,1.75 0 0 1 -0.849,-1.5l0,-0.234a1.95,1.95 0 0 1 1.95,-1.95l0.1,0a1.95,1.95 0 0 1 1.95,1.95l0,0.05a0.75,0.75 0 0 1 -1.5,0l0,-0.05a0.45,0.45 0 0 0 -0.45,-0.45l-0.1,0a0.45,0.45 0 0 0 -0.45,0.45l0,0.234c0,0.088 0.046,0.169 0.121,0.214l1.53,0.918c0.527,0.316 0.849,0.886 0.849,1.5l0,0.234a1.957,1.957 0 0 1 -0.247,0.95a1.95,1.95 0 0 1 -1.703,1l-0.1,0a1.95,1.95 0 0 1 -1.703,-1zm-1.439,-0.538c0.124,-0.296 0.192,-0.621 0.192,-0.962a0.75,0.75 0 1 0 -1.5,0a1,1 0 1 1 -2,0l0,-2a1,1 0 1 1 2,0a0.75,0.75 0 1 0 1.5,0a2.5,2.5 0 1 0 -5,0l0,2a2.5,2.5 0 0 0 4.808,0.962z"/>
  </g>
</svg>