<svg width="21" height="21" viewBox="0 0 24 24"  fill="context-fill" fill-opacity="context-fill-opacity" xmlns="http://www.w3.org/2000/svg">
  <g>
    <path d="m5.5,2.25a0.75,0.75 0 0 1 0.75,-0.75l5.75,0l0,4.5a2,2 0 0 0 2,2l4.5,0l0,9.75a0.75,0.75 0 0 1 -0.75,0.75l-4.75,0l0,1.5l4.75,0a2.25,2.25 0 0 0 2.25,-2.25l0,-10.086c0,-0.464 -0.184,-0.909 -0.513,-1.237l-5.914,-5.914a1.75,1.75 0 0 0 -1.237,-0.513l-6.086,0a2.25,2.25 0 0 0 -2.25,2.25l0,7.75l1.5,0l0,-7.75zm8,3.75l0,-3.44l3.94,3.94l-3.44,0a0.5,0.5 0 0 1 -0.5,-0.5z"/>
    <path d="m4.5,11.75a0.75,0.75 0 0 1 -0.75,0.75l-1.25,0l0,7l1.25,0a0.75,0.75 0 0 1 0,1.5l-1.25,0a1.5,1.5 0 0 1 -1.5,-1.5l0,-7a1.5,1.5 0 0 1 1.5,-1.5l1.25,0a0.75,0.75 0 0 1 0.75,0.75z"/>
    <path d="m9.25,12.5a0.75,0.75 0 0 1 0,-1.5l1.25,0a1.5,1.5 0 0 1 1.5,1.5l0,7a1.5,1.5 0 0 1 -1.5,1.5l-1.25,0a0.75,0.75 0 0 1 0,-1.5l1.25,0l0,-7l-1.25,0z"/>
    <path d="m6.5,14.75a0.75,0.75 0 0 1 0.75,0.75l0,3.5a0.75,0.75 0 0 1 -1.5,0l0,-3.5a0.75,0.75 0 0 1 0.75,-0.75z"/>
    <path d="m6.5,14a0.75,0.75 0 1 0 0,-1.5a0.75,0.75 0 0 0 0,1.5z"/>
  </g>
</svg>