<svg xmlns="http://www.w3.org/2000/svg" xmlns:xlink="http://www.w3.org/1999/xlink" width="16" height="16" style="fill: context-fill; fill-opacity: context-fill-opacity;" preserveAspectRatio="xMidYMid meet" viewBox="0 0 17 17">
  <g>
    <path d="m9.5,10c0,0.924 -0.314,1.775 -0.84,2.453l3.691,3.692a0.5,0.5 0 1 1 -0.707,0.707l-3.691,-3.692a4,4 0 1 1 1.547,-3.16zm-4,3a3,3 0 1 0 0,-6a3,3 0 0 0 0,6z"/>
   <path id="svg_3" d="m5,1a0.5,0.5 0 0 0 -0.5,0.5l0,3.6c-0.348,0.07 -0.683,0.177 -1,0.316l0,-3.916a1.5,1.5 0 0 1 1.5,-1.5l5.086,0a1.5,1.5 0 0 1 1.06,0.44l3.915,3.914a1.5,1.5 0 0 1 0.439,1.06l0,9.086a1.5,1.5 0 0 1 -1.5,1.5l-0.587,0a1.494,1.494 0 0 0 -0.354,-0.563l-0.439,-0.437l1.38,0a0.5,0.5 0 0 0 0.5,-0.5l0,-8.5l-3.5,0a1.5,1.5 0 0 1 -1.5,-1.5l0,-3.5l-4.5,0zm5.5,0.207l0,3.293a0.5,0.5 0 0 0 0.5,0.5l3.293,0l-3.793,-3.793z"/>
  </g>
</svg>