<svg xmlns="http://www.w3.org/2000/svg" xmlns:xlink="http://www.w3.org/1999/xlink" width="16" height="16" style="fill: context-fill; fill-opacity: context-fill-opacity;" preserveAspectRatio="xMidYMid meet" viewBox="0 0 16 16">
  <g>
    <path d="m11.245,0.81309a2.783,2.783 0 0 1 4.066,3.796l-0.13,0.14l-9.606,9.606a2.001,2.001 0 0 1 -0.723,0.462l-0.165,0.053l-4.055,1.106a0.5,0.5 0 0 1 -0.63,-0.535l0.016,-0.08l1.106,-4.054c0.076,-0.28 0.212,-0.54 0.398,-0.76l0.117,-0.128l9.606,-9.606zm-0.86,2.275l-8.039,8.038a1,1 0 0 0 -0.215,0.321l-0.042,0.123l-0.877,3.21l3.212,-0.875a1,1 0 0 0 0.239,-0.1l0.107,-0.072l0.098,-0.085l8.038,-8.04l-2.521,-2.52zm4.089,-1.568a1.783,1.783 0 0 0 -2.402,-0.11l-0.12,0.11l-0.86,0.86l2.52,2.522l0.862,-0.86a1.783,1.783 0 0 0 0.11,-2.402l-0.11,-0.12z"/>
  </g>
</svg>