<svg xmlns="http://www.w3.org/2000/svg" xmlns:xlink="http://www.w3.org/1999/xlink" width="16" height="16" style="fill: context-fill; fill-opacity: context-fill-opacity;" preserveAspectRatio="xMidYMid meet" viewBox="0 0 20 20">
  <g>
    <path d="m3.503,2.62309l-0.003,2.123l0,10.504a3.25,3.25 0 0 0 3.25,3.25l8.616,0a2.251,2.251 0 0 1 -2.122,1.5l-6.494,0a4.75,4.75 0 0 1 -4.75,-4.75l0,-10.504c0,-0.98 0.627,-1.815 1.503,-2.123zm12.247,-2.627a2.25,2.25 0 0 1 2.25,2.25l0,13a2.25,2.25 0 0 1 -2.25,2.25l-9,0a2.25,2.25 0 0 1 -2.25,-2.25l0,-13a2.25,2.25 0 0 1 2.25,-2.25l9,0zm0,1.5l-9,0a0.75,0.75 0 0 0 -0.75,0.75l0,13c0,0.414 0.336,0.75 0.75,0.75l9,0a0.75,0.75 0 0 0 0.75,-0.75l0,-13a0.75,0.75 0 0 0 -0.75,-0.75z"/>
  </g>
</svg>