<svg xmlns="http://www.w3.org/2000/svg" xmlns:xlink="http://www.w3.org/1999/xlink" width="16" height="16" style="fill: context-fill; fill-opacity: context-fill-opacity;" preserveAspectRatio="xMidYMid meet" viewBox="0 0 16 16">
  <g>
    <path d="m3.92,0.228a0.5,0.5 0 0 0 -0.84,0.544l4.325,6.658l-1.925,2.96a3,3 0 1 0 0.779,0.636l1.741,-2.678l1.74,2.68a3,3 0 1 0 0.779,-0.636l-6.599,-10.165l0,0.001zm8.08,14.772a2,2 0 1 1 0,-4a2,2 0 0 1 0,4zm-10,-2a2,2 0 1 1 4,0a2,2 0 0 1 -4,0z"/>
    <path d="m9.192,6.511l-0.596,-0.918l3.485,-5.365a0.5,0.5 0 0 1 0.838,0.544l-3.727,5.74l0,-0.001z"/>
  </g>
</svg>