<svg xmlns="http://www.w3.org/2000/svg" xmlns:xlink="http://www.w3.org/1999/xlink" width="16" height="16" style="fill: context-fill; fill-opacity: context-fill-opacity;" preserveAspectRatio="xMidYMid meet" viewBox="0 0 16 16">
  <g>
    <path d="m8,0a8,8 0 1 1 0,16a8,8 0 0 1 0,-16zm0,10.5a0.75,0.75 0 1 0 0,1.5a0.75,0.75 0 0 0 0,-1.5zm0,-6.5a0.5,0.5 0 0 0 -0.492,0.41l-0.008,0.09l0,4.5l0.008,0.09a0.5,0.5 0 0 0 0.984,0l0.008,-0.09l0,-4.5l-0.008,-0.09a0.5,0.5 0 0 0 -0.492,-0.41z"/>
  </g>
</svg>