<svg xmlns="http://www.w3.org/2000/svg" xmlns:xlink="http://www.w3.org/1999/xlink" width="16" height="16" style="fill: context-fill; fill-opacity: context-fill-opacity;" preserveAspectRatio="xMidYMid meet" viewBox="0 0 16 16">
  <g>
    <path d="m9,0a2,2 0 0 1 2,2l-0.001,0.056l3.001,0a1,1 0 0 1 1,1l-0.001,2.944l-0.999,0a2,2 0 0 0 -1.995,1.85l-0.005,0.15a2,2 0 0 0 1.85,1.995l0.15,0.005l0.999,-0.001l0.001,3.057a1,1 0 0 1 -1,1l-3.003,0l-0.002,0.093a2,2 0 0 1 -3.995,-0.092l-3,0a1,1 0 0 1 -1,-1l0,-3.057a2,2 0 1 1 0,-4l0,-2.944a1,1 0 0 1 1,-1l2.999,0l0.001,-0.056a2,2 0 0 1 2,-2z"/>
  </g>
</svg>