<svg xmlns="http://www.w3.org/2000/svg" xmlns:xlink="http://www.w3.org/1999/xlink" width="16" height="16" style="fill: context-fill; fill-opacity: context-fill-opacity;" preserveAspectRatio="xMidYMid meet" viewBox="0 0 16 16">
  <g>
    <path d="m15.29387,0.76863a2.621,2.621 0 0 0 -3.708,0l-1.039,1.04l-0.351,-0.351a1.5,1.5 0 0 0 -2.121,0l-0.586,0.586a1.5,1.5 0 0 0 0,2.12l0.35,0.352l-6.353,6.353a1.5,1.5 0 0 0 -0.439,1.061l0,0.502l-0.964,2.258c-0.356,0.833 0.49,1.672 1.32,1.309l2.249,-0.983l0.48,0a1.5,1.5 0 0 0 1.062,-0.44l6.353,-6.353l0.353,0.353a1.5,1.5 0 0 0 2.122,0l0.585,-0.585a1.5,1.5 0 0 0 0,-2.122l-0.353,-0.353l1.04,-1.04a2.621,2.621 0 0 0 0,-3.707zm-6.747,4.454l2.293,2.293l-6.354,6.353a0.5,0.5 0 0 1 -0.353,0.147l-0.586,0a0.5,0.5 0 0 0 -0.2,0.042l-2.345,1.025l1.005,-2.353a0.5,0.5 0 0 0 0.04,-0.196l0,-0.604a0.5,0.5 0 0 1 0.147,-0.354l6.353,-6.353z"/>
  </g>
</svg>