<svg xmlns="http://www.w3.org/2000/svg" viewBox="0 0 16 16" width="16px" height="16px" style="fill: context-fill; fill-opacity: context-fill-opacity;" preserveAspectRatio="xMidYMid meet">
  <g>
    <path d="m5.167,1c0.27,0 0.535,0.073 0.765,0.21l0.135,0.09l1.6,1.2l5.833,0a2.5,2.5 0 0 1 2.479,2.174l0.016,0.162l0.005,0.164l0,7.5a2.5,2.5 0 0 1 -2.336,2.495l-0.164,0.005l-11,0a2.5,2.5 0 0 1 -2.495,-2.336l-0.005,-0.164l0,-9a2.5,2.5 0 0 1 2.336,-2.495l0.164,-0.005l2.667,0zm0.99,4.034a1.5,1.5 0 0 1 -0.933,0.458l-0.153,0.008l-4.071,-0.001l0,7.001a1.5,1.5 0 0 0 1.356,1.493l0.144,0.007l11,0a1.5,1.5 0 0 0 1.493,-1.355l0.007,-0.145l0,-7.5a1.5,1.5 0 0 0 -1.355,-1.493l-0.145,-0.007l-5.883,0l-1.46,1.534zm-0.989,-3.034l-2.668,0a1.5,1.5 0 0 0 -1.493,1.356l-0.007,0.144l0,0.999l4.071,0.001a0.5,0.5 0 0 0 0.302,-0.101l0.06,-0.054l1.261,-1.325l-1.227,-0.92a0.5,0.5 0 0 0 -0.22,-0.093l-0.08,-0.007l0.001,0z"/>
  </g>
</svg>