<svg xmlns="http://www.w3.org/2000/svg" xmlns:xlink="http://www.w3.org/1999/xlink" width="16" height="16" style="fill: context-fill; fill-opacity: context-fill-opacity;" preserveAspectRatio="xMidYMid meet" viewBox="0 0 42 42">
  <g>
    <path d="m13.06,4c0.833,0 1.64,0.277 2.295,0.784l0.175,0.144l2.586,2.263c0.19,0.166 0.425,0.27 0.673,0.3l0.15,0.009l17.311,0a3.75,3.75 0 0 1 3.745,3.55l0.005,0.2l0,7.806a12.024,12.024 0 0 0 -2.5,-1.724l0,-6.082a1.25,1.25 0 0 0 -1.122,-1.243l-0.128,-0.007l-17.403,-0.001l-2.127,2.616a3.75,3.75 0 0 1 -2.685,1.378l-0.225,0.007l-11.31,-0.001l0,16.251c0,0.647 0.492,1.18 1.122,1.243l0.128,0.007l16.769,0c0.268,0.881 0.635,1.719 1.087,2.501l-17.856,-0.001a3.75,3.75 0 0 1 -3.745,-3.55l-0.005,-0.2l0,-22.5a3.75,3.75 0 0 1 3.55,-3.745l0.2,-0.005l9.31,0zm0,2.5l-9.31,0a1.25,1.25 0 0 0 -1.244,1.122l-0.006,0.128l0,3.749l11.31,0.001c0.33,0 0.643,-0.13 0.876,-0.358l0.094,-0.104l1.635,-2.013l-2.531,-2.216a1.25,1.25 0 0 0 -0.673,-0.3l-0.15,-0.009l-0.001,0zm18.94,11.5c5.523,0 10,4.477 10,10s-4.477,10 -10,10s-10,-4.477 -10,-10s4.477,-10 10,-10zm0,4a1,1 0 0 0 -0.993,0.883l-0.007,0.117l0,4l-4,0a1,1 0 0 0 -0.993,0.883l-0.007,0.117a1,1 0 0 0 0.883,0.993l0.117,0.007l4,0l0,4a1,1 0 0 0 0.883,0.993l0.117,0.007a1,1 0 0 0 0.993,-0.883l0.007,-0.117l0,-4l4,0a1,1 0 0 0 0.993,-0.883l0.007,-0.117a1,1 0 0 0 -0.883,-0.993l-0.117,-0.007l-4,0l0,-4a1,1 0 0 0 -0.883,-0.993l-0.117,-0.007z"/>
  </g>
</svg>