<svg xmlns="http://www.w3.org/2000/svg" viewBox="0 0 16 16" width="16px" height="16px" style="fill: context-fill; fill-opacity: context-fill-opacity;" preserveAspectRatio="xMidYMid meet">
  <g>
    <path d="m5.932,0.70805a1.5,1.5 0 0 0 -0.765,-0.21l-2.667,0l-0.164,0.005a2.5,2.5 0 0 0 -2.336,2.495l0,9l0.005,0.164a2.5,2.5 0 0 0 2.495,2.336l4.377,0l-0.436,-0.434a1.5,1.5 0 0 1 -0.356,-0.566l-3.585,0l-0.144,-0.007a1.5,1.5 0 0 1 -1.356,-1.493l0,-7.001l4.071,0.001l0.153,-0.008a1.5,1.5 0 0 0 0.934,-0.458l1.459,-1.534l5.883,0l0.145,0.007a1.5,1.5 0 0 1 1.355,1.493l0,5.883l1,1l0,-6.883l-0.005,-0.164l-0.016,-0.162a2.5,2.5 0 0 0 -2.479,-2.174l-5.833,0l-1.6,-1.2l-0.135,-0.09zm-3.432,0.79l2.667,0l0.08,0.006a0.5,0.5 0 0 1 0.22,0.094l1.227,0.921l-1.26,1.324l-0.061,0.054a0.5,0.5 0 0 1 -0.302,0.101l-4.071,-0.001l0,-0.999l0.007,-0.144a1.5,1.5 0 0 1 1.493,-1.356z"/>
    <path d="m9.856,11.35705a0.5,0.5 0 0 0 -0.706,-0.708l-2.003,1.998a0.5,0.5 0 0 0 0,0.708l2.003,1.997a0.5,0.5 0 1 0 0.706,-0.708l-1.147,-1.144l5.584,0l-1.146,1.144a0.5,0.5 0 1 0 0.706,0.708l2,-1.996a0.5,0.5 0 0 0 0,-0.708l-2,-1.999a0.5,0.5 0 1 0 -0.707,0.707l1.145,1.144l-5.581,0l1.146,-1.143z"/>
  </g>
</svg>