<svg xmlns="http://www.w3.org/2000/svg" xmlns:xlink="http://www.w3.org/1999/xlink" width="16" height="16" style="fill: context-fill; fill-opacity: context-fill-opacity;" preserveAspectRatio="xMidYMid meet" viewBox="0 0 17 17">
  <g>
    <path d="m2.5,0.5l2.667,0c0.324,0 0.64,0.105 0.9,0.3l1.6,1.2l5.833,0a2.5,2.5 0 0 1 2.5,2.5l0,3.257a5.503,5.503 0 0 0 -1,-0.657l0,-2.6a1.5,1.5 0 0 0 -1.5,-1.5l-5.88,0l-1.463,1.534a1.5,1.5 0 0 1 -1.087,0.466l-4.07,0l0,7a1.5,1.5 0 0 0 1.5,1.5l4.707,0c0.099,0.349 0.23,0.683 0.393,1l-5.1,0a2.5,2.5 0 0 1 -2.5,-2.5l0,-9a2.5,2.5 0 0 1 2.5,-2.5zm-1.5,2.5l0,1l4.071,0a0.5,0.5 0 0 0 0.363,-0.155l1.26,-1.324l-1.227,-0.921a0.5,0.5 0 0 0 -0.3,-0.1l-2.667,0a1.5,1.5 0 0 0 -1.5,1.5z"/>
    <path d="m17,12a4.5,4.5 0 1 1 -9,0a4.5,4.5 0 0 1 9,0zm-4.146,-2.353l-0.003,-0.003a0.497,0.497 0 0 0 -0.348,-0.144l-0.006,0a0.498,0.498 0 0 0 -0.35,0.146l-2,2a0.5,0.5 0 0 0 0.707,0.708l1.146,-1.147l0,2.793a0.5,0.5 0 1 0 1,0l0,-2.793l1.146,1.147a0.5,0.5 0 1 0 0.707,-0.707l-2,-2l0.001,0z"/>
  </g>
</svg>