<svg xmlns="http://www.w3.org/2000/svg" xmlns:xlink="http://www.w3.org/1999/xlink" width="16" height="16" style="fill: context-fill; fill-opacity: context-fill-opacity;" preserveAspectRatio="xMidYMid meet" viewBox="0 0 16 16">
  <g>
    <path d="m1.5,9l5,0a0.5,0.5 0 0 1 0.492,0.41l0.008,0.09l0,5a0.5,0.5 0 0 1 -0.992,0.09l-0.008,-0.09l0,-3.794l-5.146,5.148a0.5,0.5 0 0 1 -0.765,-0.638l0.057,-0.07l5.146,-5.146l-3.792,0a0.5,0.5 0 0 1 -0.492,-0.41l-0.008,-0.09a0.5,0.5 0 0 1 0.41,-0.492l0.09,-0.008l5,0l-5,0zm14.354,-8.854a0.5,0.5 0 0 1 0.057,0.638l-0.057,0.07l-5.148,5.146l3.794,0a0.5,0.5 0 0 1 0.492,0.41l0.008,0.09a0.5,0.5 0 0 1 -0.41,0.492l-0.09,0.008l-5.02,0l-0.069,-0.008l-0.102,-0.03l-0.076,-0.04l-0.055,-0.04l-0.032,-0.028l-0.037,-0.042l-0.042,-0.062l-0.03,-0.06l-0.02,-0.062l-0.006,-0.023a0.496,0.496 0 0 1 -0.011,-0.105l0.005,0.074l-0.003,-0.031l-0.002,-5.043a0.5,0.5 0 0 1 0.992,-0.09l0.008,0.09l0,3.792l5.146,-5.146a0.5,0.5 0 0 1 0.708,0z"/>
  </g>
</svg>