<svg xmlns="http://www.w3.org/2000/svg" xmlns:xlink="http://www.w3.org/1999/xlink" width="16" height="16" style="fill: context-fill; fill-opacity: context-fill-opacity;" preserveAspectRatio="xMidYMid meet" viewBox="0 0 18 18">
  <g>
    <path d="m5.5,0.75a0.75,0.75 0 0 0 -1.5,0l0,2.5a0.75,0.75 0 0 1 -0.75,0.75l-2.5,0a0.75,0.75 0 0 0 0,1.5l2.5,0a2.25,2.25 0 0 0 2.25,-2.25l0,-2.5z"/>
    <path d="m5.5,17.25a0.75,0.75 0 0 1 -1.5,0l0,-2.5a0.75,0.75 0 0 0 -0.75,-0.75l-2.5,0a0.75,0.75 0 0 1 0,-1.5l2.5,0a2.25,2.25 0 0 1 2.25,2.25l0,2.5z"/>
    <path d="m13.25,0a0.75,0.75 0 0 0 -0.75,0.75l0,2.5a2.25,2.25 0 0 0 2.25,2.25l2.5,0a0.75,0.75 0 0 0 0,-1.5l-2.5,0a0.75,0.75 0 0 1 -0.75,-0.75l0,-2.5a0.75,0.75 0 0 0 -0.75,-0.75z"/>
    <path d="m12.5,17.25a0.75,0.75 0 0 0 1.5,0l0,-2.5a0.75,0.75 0 0 1 0.75,-0.75l2.5,0a0.75,0.75 0 0 0 0,-1.5l-2.5,0a2.25,2.25 0 0 0 -2.25,2.25l0,2.5z"/>
  </g>
</svg>