<svg xmlns="http://www.w3.org/2000/svg" xmlns:xlink="http://www.w3.org/1999/xlink" width="16" height="16" style="fill: context-fill; fill-opacity: context-fill-opacity;" preserveAspectRatio="xMidYMid meet" viewBox="0 0 18 18">
  <g>
    <path d="m1.5,2.75c0,-0.69 0.56,-1.25 1.25,-1.25l2,0a0.75,0.75 0 0 0 0,-1.5l-2,0a2.75,2.75 0 0 0 -2.75,2.75l0,2a0.75,0.75 0 0 0 1.5,0l0,-2z"/>
    <path d="m1.5,15.25c0,0.69 0.56,1.25 1.25,1.25l2,0a0.75,0.75 0 0 1 0,1.5l-2,0a2.75,2.75 0 0 1 -2.75,-2.75l0,-2a0.75,0.75 0 0 1 1.5,0l0,2z"/>
    <path d="m15.25,1.5c0.69,0 1.25,0.56 1.25,1.25l0,2a0.75,0.75 0 0 0 1.5,0l0,-2a2.75,2.75 0 0 0 -2.75,-2.75l-2,0a0.75,0.75 0 0 0 0,1.5l2,0z"/>
    <path d="m16.5,15.25c0,0.69 -0.56,1.25 -1.25,1.25l-2,0a0.75,0.75 0 0 0 0,1.5l2,0a2.75,2.75 0 0 0 2.75,-2.75l0,-2a0.75,0.75 0 0 0 -1.5,0l0,2z"/>
  </g>
</svg>