<svg xmlns="http://www.w3.org/2000/svg" xmlns:xlink="http://www.w3.org/1999/xlink" width="16" height="16" style="fill: black; fill-opacity: context-fill-opacity;" preserveAspectRatio="xMidYMid meet" viewBox="0 0 16 16">
  <g>
    <path d="m8,16a8,8 0 1 0 0,-16a8,8 0 0 0 0,16zm0,-15c0.657,0 1.407,0.59 2.022,1.908c0.217,0.466 0.406,1.002 0.559,1.592l-5.162,0c0.153,-0.59 0.342,-1.126 0.56,-1.592c0.613,-1.318 1.363,-1.908 2.021,-1.908zm-2.928,1.485a10.502,10.502 0 0 0 -0.683,2.015l-2.453,0a7.022,7.022 0 0 1 3.778,-3.118c-0.241,0.33 -0.456,0.704 -0.642,1.103zm-0.88,3.015a15.97,15.97 0 0 0 -0.192,2.5c0,0.87 0.067,1.712 0.193,2.5l-2.733,0a6.984,6.984 0 0 1 -0.46,-2.5c0,-0.88 0.163,-1.724 0.46,-2.5l2.733,0l-0.001,0zm0.197,6c0.176,0.743 0.407,1.422 0.683,2.015c0.186,0.399 0.401,0.773 0.642,1.103a7.022,7.022 0 0 1 -3.778,-3.118l2.454,0l-0.001,0zm1.03,0l5.162,0a9.248,9.248 0 0 1 -0.56,1.592c-0.613,1.318 -1.363,1.908 -2.021,1.908c-0.657,0 -1.407,-0.59 -2.022,-1.908a9.254,9.254 0 0 1 -0.558,-1.592l-0.001,0zm5.375,-1l-5.588,0a14.87,14.87 0 0 1 -0.206,-2.5c0,-0.883 0.073,-1.725 0.206,-2.5l5.588,0c0.133,0.775 0.206,1.617 0.206,2.5s-0.073,1.725 -0.206,2.5zm0.817,1l2.453,0a7.022,7.022 0 0 1 -3.778,3.118c0.241,-0.33 0.456,-0.704 0.642,-1.103c0.276,-0.593 0.507,-1.272 0.683,-2.015zm2.93,-1l-2.734,0c0.126,-0.788 0.193,-1.63 0.193,-2.5c0,-0.87 -0.067,-1.712 -0.193,-2.5l2.733,0c0.297,0.776 0.46,1.62 0.46,2.5c0,0.88 -0.163,1.724 -0.46,2.5l0.001,0zm-4.255,-9.118a7.021,7.021 0 0 1 3.778,3.118l-2.454,0a10.504,10.504 0 0 0 -0.683,-2.015a6.635,6.635 0 0 0 -0.642,-1.103l0.001,0z"/>
  </g>
</svg>