<svg xmlns="http://www.w3.org/2000/svg" xmlns:xlink="http://www.w3.org/1999/xlink" width="16" height="16" style="fill: context-fill; fill-opacity: context-fill-opacity;" preserveAspectRatio="xMidYMid meet" viewBox="0 0 16 16">
  <g>
    <path d="m8,0a8,8 0 1 1 0,16a8,8 0 0 1 0,-16zm0,1a7,7 0 1 0 0,14a7,7 0 0 0 0,-14zm0,10.5a0.75,0.75 0 1 1 0,1.5a0.75,0.75 0 0 1 0,-1.5zm0,-8a2.5,2.5 0 0 1 1.651,4.377l-0.154,0.125l-0.219,0.163l-0.087,0.072a1.968,1.968 0 0 0 -0.156,0.149c-0.339,0.36 -0.535,0.856 -0.535,1.614a0.5,0.5 0 0 1 -1,0c0,-1.012 0.293,-1.752 0.805,-2.298a3.11,3.11 0 0 1 0.356,-0.323l0.247,-0.185l0.118,-0.1a1.5,1.5 0 1 0 -2.526,-1.094a0.5,0.5 0 0 1 -1,0.001a2.5,2.5 0 0 1 2.5,-2.501z"/>
  </g>
</svg>