<svg xmlns="http://www.w3.org/2000/svg" xmlns:xlink="http://www.w3.org/1999/xlink" width="16" height="16" style="fill: context-fill; fill-opacity: context-fill-opacity;" preserveAspectRatio="xMidYMid meet" viewBox="0 0 16 16">
  <g>
    <path d="m1.5,0.00001a0.5,0.5 0 0 1 0.5,0.5l0,4a0.5,0.5 0 0 0 0.5,0.5l11,0a0.5,0.5 0 0 0 0.5,-0.5l0,-4a0.5,0.5 0 0 1 1,0l0,4a1.5,1.5 0 0 1 -1,1.415l0,1.085a2,2 0 0 1 -2,2l0,2.073a2,2 0 0 1 -1.106,1.789l-6.17,3.085a0.5,0.5 0 0 1 -0.724,-0.447l0,-6.5a2,2 0 0 1 -2,-2l0,-1.085a1.5,1.5 0 0 1 -1,-1.415l0,-4a0.5,0.5 0 0 1 0.5,-0.5zm1.5,6l0,1a1,1 0 0 0 1,1l8,0a1,1 0 0 0 1,-1l0,-1l-10,0zm2,3l0,5.691l5.447,-2.724a1,1 0 0 0 0.553,-0.894l0,-2.073l-6,0z"/>
   </g>
</svg>