<svg xmlns="http://www.w3.org/2000/svg" xmlns:xlink="http://www.w3.org/1999/xlink" width="16" height="16" style="fill: context-fill; fill-opacity: context-fill-opacity;" preserveAspectRatio="xMidYMid meet" viewBox="0 0 22 22">
  <g>
    <path d="m1.507,3.008a3.243,3.243 0 0 0 -1.507,2.742l0,10.5c0,2.9 2.35,5.25 5.25,5.25l10.5,0a3.247,3.247 0 0 0 2.744,-1.508l-0.122,0.006l-0.122,0.002l-13,0a3.75,3.75 0 0 1 -3.75,-3.75l0,-13c0,-0.081 0.002,-0.162 0.007,-0.242zm4.243,-3.008a3.25,3.25 0 0 0 -3.25,3.25l0,12.5a3.25,3.25 0 0 0 3.25,3.25l12.5,0a3.25,3.25 0 0 0 3.25,-3.25l0,-12.5a3.25,3.25 0 0 0 -3.25,-3.25l-12.5,0zm-0.582,17.401l6.307,-6.178a0.75,0.75 0 0 1 0.966,-0.07l0.084,0.07l6.306,6.178a1.749,1.749 0 0 1 -0.581,0.099l-12.5,0c-0.204,0 -0.4,-0.035 -0.582,-0.099zm0.582,-15.901l12.5,0c0.966,0 1.75,0.784 1.75,1.75l0,12.5c0,0.208 -0.036,0.408 -0.103,0.593l-6.322,-6.191a2.25,2.25 0 0 0 -3.02,-0.117l-0.13,0.117l-6.322,6.192a1.747,1.747 0 0 1 -0.103,-0.594l0,-12.5c0,-0.966 0.784,-1.75 1.75,-1.75zm2.75,3.251a1.25,1.25 0 1 0 0,2.499a1.25,1.25 0 0 0 0,-2.499z"/>
  </g>
</svg>