<svg xmlns="http://www.w3.org/2000/svg" xmlns:xlink="http://www.w3.org/1999/xlink" width="16" height="16" style="fill: context-fill; fill-opacity: context-fill-opacity;" preserveAspectRatio="xMidYMid meet" viewBox="0 0 21 21">
  <g>
    <path d="m11,5.5a5.5,5.5 0 1 0 -11,0a5.5,5.5 0 0 0 11,0zm-8,-3l0,0.551a3.5,3.5 0 1 1 -0.187,4.691c-0.263,-0.315 -0.002,-0.742 0.408,-0.742c0.176,0 0.339,0.085 0.46,0.213a2.5,2.5 0 1 0 -0.181,-3.213l1,0a0.5,0.5 0 0 1 0,1l-2,0a0.5,0.5 0 0 1 -0.5,-0.5l0,-2a0.5,0.5 0 0 1 1,0z"/>
    <path d="m17.75,4.5l-5.826,0a6.451,6.451 0 0 0 -0.422,-1.5l6.248,0a3.25,3.25 0 0 1 3.25,3.25l0,11.5a3.25,3.25 0 0 1 -3.25,3.25l-11.5,0a3.25,3.25 0 0 1 -3.25,-3.25l0,-6.248c0.474,0.198 0.977,0.34 1.5,0.422l0,5.826c0,0.208 0.036,0.408 0.103,0.594l5.823,-5.701a2.25,2.25 0 0 1 3.02,-0.116l0.128,0.116l5.822,5.702c0.067,-0.186 0.104,-0.386 0.104,-0.595l0,-11.5a1.75,1.75 0 0 0 -1.75,-1.75zm0.58,14.901l-5.805,-5.686a0.75,0.75 0 0 0 -0.966,-0.071l-0.084,0.07l-5.807,5.687c0.182,0.064 0.378,0.099 0.582,0.099l11.5,0c0.203,0 0.399,-0.035 0.58,-0.099z"/>
    <path d="m15.252,6.5a2.252,2.252 0 1 1 0,4.504a2.252,2.252 0 0 1 0,-4.504zm0,1.5a0.752,0.752 0 1 0 0,1.504a0.752,0.752 0 0 0 0,-1.504z"/>
  </g>
</svg>


