<svg xmlns="http://www.w3.org/2000/svg" xmlns:xlink="http://www.w3.org/1999/xlink" width="16" height="16" style="fill: context-fill; fill-opacity: context-fill-opacity;" preserveAspectRatio="xMidYMid meet" viewBox="0 0 16 16">
  <g>
    <path d="m2,0a2,2 0 0 0 -2,2l0,4a2,2 0 0 0 2,2l5,0a2,2 0 0 0 2,-2l0,-4a2,2 0 0 0 -2,-2l-5,0zm0.5,5l4,0a0.5,0.5 0 0 1 0,1l-4,0a0.5,0.5 0 0 1 0,-1zm-0.5,-2.5a0.5,0.5 0 0 1 0.5,-0.5l4,0a0.5,0.5 0 0 1 0,1l-4,0a0.5,0.5 0 0 1 -0.5,-0.5z"/>
    <path d="m2,13l0,-4l1,0l0,4c0,0.373 0.102,0.721 0.28,1.02l4.669,-4.588a1.5,1.5 0 0 1 2.102,0l4.67,4.588a1.99,1.99 0 0 0 0.279,-1.02l0,-8a2,2 0 0 0 -2,-2l-3,0l0,-1l3,0a3,3 0 0 1 3,3l0,8a3,3 0 0 1 -3,3l-8,0a3,3 0 0 1 -3,-3zm3,2l8,0c0.37,0 0.715,-0.1 1.012,-0.274l-4.662,-4.58a0.5,0.5 0 0 0 -0.7,0l-4.662,4.58a1.99,1.99 0 0 0 1.012,0.274z"/>
    <path d="m11.5,8a1.5,1.5 0 1 1 0,-3a1.5,1.5 0 0 1 0,3zm0.5,-1.5a0.5,0.5 0 1 0 -1,0a0.5,0.5 0 0 0 1,0z"/>
  </g>
</svg>