<svg xmlns="http://www.w3.org/2000/svg" xmlns:xlink="http://www.w3.org/1999/xlink" width="16" height="16" style="fill: context-fill; fill-opacity: context-fill-opacity;" preserveAspectRatio="xMidYMid meet" viewBox="0 0 16 16">
  <g>
    <path d="m8.492,6.91a0.5,0.5 0 0 0 -0.992,0.09l0,4.502l0.008,0.09a0.5,0.5 0 0 0 0.992,-0.09l0,-4.502l-0.008,-0.09z"/>
    <path d="m8.799,4.75a0.75,0.75 0 1 0 -1.5,0a0.75,0.75 0 0 0 1.5,0z"/>
    <path d="m16,8a8,8 0 1 0 -16,0a8,8 0 0 0 16,0zm-15,0a7,7 0 1 1 14,0a7,7 0 0 1 -14,0z"/>
  </g>
</svg>