<svg xmlns="http://www.w3.org/2000/svg" xmlns:xlink="http://www.w3.org/1999/xlink" width="16" height="16" style="fill: context-fill; fill-opacity: context-fill-opacity;" preserveAspectRatio="xMidYMid meet" viewBox="0 0 16 16">
  <g>
    <path d="m7.99999,0a4,4 0 1 0 3.123,6.5l-3.123,0l0,-1l3.71,0c0.127,-0.315 0.215,-0.65 0.26,-1l-3.97,0l0,-1l3.97,0a3.973,3.973 0 0 0 -0.26,-1l-3.71,0l0,-1l3.123,0a3.993,3.993 0 0 0 -3.123,-1.5zm-4.991,9a2.001,2.001 0 0 0 -2.009,2c0,1.691 0.833,2.966 2.135,3.797c1.282,0.817 3.01,1.203 4.865,1.203c1.694,0 3.282,-0.322 4.52,-1l-4.52,0l0,-1l5.836,0c0.283,-0.3 0.522,-0.636 0.708,-1.005l-6.544,0l0,-1l6.896,0a4.69,4.69 0 0 0 0.104,-0.995l0,-0.005l-7,0l0,-1l6.73,0a2,2 0 0 0 -1.73,-0.995l-9.991,0z"/>
  </g>
</svg>