<svg xmlns="http://www.w3.org/2000/svg" xmlns:xlink="http://www.w3.org/1999/xlink" width="16" height="16" preserveAspectRatio="xMidYMid meet" viewBox="0 0 18 18" style="fill: context-fill; fill-opacity: context-fill-opacity;">
  <g>
    <path d="m5.00195,1.5l1,0l0,6.238c0,0.375 -0.094,0.744 -0.273,1.074l-3.584,6.603a1.75,1.75 0 0 0 1.537,2.585l10.638,0a1.75,1.75 0 0 0 1.538,-2.585l-3.584,-6.603a2.25,2.25 0 0 1 -0.272,-1.074l0,-6.238l1,0a0.75,0.75 0 0 0 0,-1.5l-8,0a0.75,0.75 0 0 0 0,1.5zm2.5,6.238l0,-6.238l3,0l0,6.238c0,0.625 0.156,1.24 0.454,1.79l0.8,1.472l-5.508,0l0.8,-1.473a3.75,3.75 0 0 0 0.454,-1.789zm-2.068,4.762l7.136,0l1.971,3.63a0.25,0.25 0 0 1 -0.22,0.37l-10.638,0a0.25,0.25 0 0 1 -0.22,-0.37l1.97,-3.63l0.001,0z"/>
  </g>
</svg>