<svg xmlns="http://www.w3.org/2000/svg" xmlns:xlink="http://www.w3.org/1999/xlink" width="16" height="16" style="fill: context-fill; fill-opacity: context-fill-opacity;" preserveAspectRatio="xMidYMid meet" viewBox="0 0 17 17">
  <g>
    <path d="m8.82,0.013a4,4 0 0 0 -4.158,5.117l-3.987,3.986a0.6,0.6 0 0 0 -0.176,0.424l0,2.86a0.6,0.6 0 0 0 0.6,0.6l2.8,0a0.6,0.6 0 0 0 0.6,-0.6l0,-1.4l1.9,0a0.6,0.6 0 0 0 0.6,-0.6l0,-1.693l0.735,-0.735a5.51,5.51 0 0 1 -0.569,-0.846l-0.99,0.991a0.6,0.6 0 0 0 -0.176,0.424l0,1.459l-1.899,0a0.6,0.6 0 0 0 -0.6,0.6l0,1.4l-2,0l0,-2.293l4.32,-4.32l-0.118,-0.303a3.001,3.001 0 0 1 1.96,-3.965c0.33,-0.423 0.72,-0.796 1.157,-1.106l0.001,0zm3.18,4.237a0.75,0.75 0 1 0 0,-1.5a0.75,0.75 0 0 0 0,1.5zm-4.5,0.25a4.5,4.5 0 1 1 7,3.742l0,2.05l0.783,0.784a0.6,0.6 0 0 1 0,0.848l-1.076,1.076l1.068,1.067a0.6,0.6 0 0 1 -0.05,0.893l-2.35,1.88a0.6,0.6 0 0 1 -0.75,0l-2.4,-1.92a0.6,0.6 0 0 1 -0.225,-0.468l0,-6.21a4.496,4.496 0 0 1 -2,-3.742zm4.5,-3.5a3.5,3.5 0 0 0 -1.75,6.532a0.5,0.5 0 0 1 0.25,0.433l0,6.295l2,1.6l1.751,-1.401l-1.034,-1.035a0.6,0.6 0 0 1 0,-0.848l1.076,-1.076l-0.617,-0.617a0.6,0.6 0 0 1 -0.176,-0.424l0,-2.494a0.5,0.5 0 0 1 0.25,-0.433a3.5,3.5 0 0 0 -1.75,-6.532z"/>
  </g>
</svg>