<svg xmlns="http://www.w3.org/2000/svg" xmlns:xlink="http://www.w3.org/1999/xlink" width="16" height="16" style="fill: context-fill; fill-opacity: context-fill-opacity;" preserveAspectRatio="xMidYMid meet" viewBox="0 0 20 20">
  <g>
    <path d="m10,0a4,4 0 0 1 4,4l0,2l1.75,0a2.25,2.25 0 0 1 2.25,2.25l0,9.5a2.25,2.25 0 0 1 -2.25,2.25l-11.5,0a2.25,2.25 0 0 1 -2.25,-2.25l0,-9.5a2.25,2.25 0 0 1 2.25,-2.25l1.75,0l0,-2a4,4 0 0 1 4,-4zm5.75,7.5l-11.5,0a0.75,0.75 0 0 0 -0.75,0.75l0,9.5c0,0.414 0.336,0.75 0.75,0.75l11.5,0a0.75,0.75 0 0 0 0.75,-0.75l0,-9.5a0.75,0.75 0 0 0 -0.75,-0.75zm-5.75,4a1.5,1.5 0 1 1 0,3a1.5,1.5 0 0 1 0,-3zm0,-10a2.5,2.5 0 0 0 -2.5,2.5l0,2l5,0l0,-2a2.5,2.5 0 0 0 -2.5,-2.5z"/>
  </g>
</svg>