<svg xmlns="http://www.w3.org/2000/svg" xmlns:xlink="http://www.w3.org/1999/xlink" width="16" height="16" style="fill: context-fill; fill-opacity: context-fill-opacity;" preserveAspectRatio="xMidYMid meet" viewBox="0 0 16 16">
  <g>
    <path d="m13,4a1,1 0 1 1 -2,0a1,1 0 0 1 2,0z"/>
    <path d="m10.5,0c-3.076,0 -5.5,2.424 -5.5,5.5c0,0.397 0.04,0.796 0.122,1.175c0.058,0.27 -0.008,0.504 -0.142,0.638l-4.54,4.54a1.5,1.5 0 0 0 -0.44,1.062l0,1.585a1.5,1.5 0 0 0 1.5,1.5l2,0a1.5,1.5 0 0 0 1.5,-1.5l0,-0.5l1,0a1,1 0 0 0 1,-1l0,-1l1,0a1,1 0 0 0 1,-1l0,-0.18c0.493,0.134 1.007,0.18 1.5,0.18c3.076,0 5.5,-2.424 5.5,-5.5s-2.424,-5.5 -5.5,-5.5zm-4.5,5.5c0,-2.524 1.976,-4.5 4.5,-4.5s4.5,1.976 4.5,4.5s-1.976,4.5 -4.5,4.5c-0.66,0 -1.273,-0.095 -1.776,-0.347a0.5,0.5 0 0 0 -0.724,0.447l0,0.9l-1,0a1,1 0 0 0 -1,1l0,1l-1,0a1,1 0 0 0 -1,1l0,0.5a0.5,0.5 0 0 1 -0.5,0.5l-2,0a0.5,0.5 0 0 1 -0.5,-0.5l0,-1.586a0.5,0.5 0 0 1 0.146,-0.353l4.541,-4.541c0.432,-0.432 0.522,-1.044 0.412,-1.556a4.619,4.619 0 0 1 -0.099,-0.964z"/>
  </g>
</svg>