<svg xmlns="http://www.w3.org/2000/svg" xmlns:xlink="http://www.w3.org/1999/xlink" width="16" height="16" style="fill: context-fill; fill-opacity: context-fill-opacity;" preserveAspectRatio="xMidYMid meet" viewBox="0 0 16 16">
  <g>
    <path d="m13.5,1.5a2.5,2.5 0 0 1 2.5,2.5l0,8a2.5,2.5 0 0 1 -2.5,2.5l-11,0a2.5,2.5 0 0 1 -2.5,-2.5l0,-8a2.5,2.5 0 0 1 2.5,-2.5l11,0zm1.5,3.961l-6.746,3.97a0.5,0.5 0 0 1 -0.426,0.038l-0.082,-0.038l-6.746,-3.968l0,6.537a1.5,1.5 0 0 0 1.5,1.5l11,0a1.5,1.5 0 0 0 1.5,-1.5l0,-6.539zm-1.5,-2.961l-11,0a1.5,1.5 0 0 0 -1.5,1.5l0,0.302l7,4.118l7,-4.12l0,-0.3a1.5,1.5 0 0 0 -1.5,-1.5z"/>
  </g>
</svg>