<svg xmlns="http://www.w3.org/2000/svg" xmlns:xlink="http://www.w3.org/1999/xlink" width="16" height="16" style="fill: context-fill; fill-opacity: context-fill-opacity;" preserveAspectRatio="xMidYMid meet" viewBox="0 0 20 20">
  <g>
    <path d="m9.78,8.22a0.75,0.75 0 0 0 -1.06,1.06l0.72,0.72l-0.72,0.72a0.75,0.75 0 1 0 1.06,1.06l0.72,-0.72l0.72,0.72a0.75,0.75 0 0 0 1.06,-1.062l-0.719,-0.718l0.72,-0.72a0.75,0.75 0 1 0 -1.061,-1.06l-0.72,0.72l-0.72,-0.72z"/>
    <path d="m3.22,8.22a0.75,0.75 0 0 1 1.06,0l0.72,0.72l0.72,-0.72a0.75,0.75 0 1 1 1.06,1.06l-0.719,0.72l0.72,0.718a0.75,0.75 0 1 1 -1.061,1.062l-0.72,-0.72l-0.72,0.72a0.75,0.75 0 0 1 -1.06,-1.06l0.72,-0.72l-0.72,-0.72a0.75,0.75 0 0 1 0,-1.06z"/>
    <path d="m14.5,11.5a0.75,0.75 0 0 0 0,1.5l1.75,0a0.75,0.75 0 0 0 0,-1.5l-1.75,0z"/>
    <path d="m3.25,3a3.25,3.25 0 0 0 -3.25,3.25l0,7.5a3.25,3.25 0 0 0 3.25,3.25l13.5,0a3.25,3.25 0 0 0 3.25,-3.25l0,-7.5a3.25,3.25 0 0 0 -3.25,-3.25l-13.5,0zm-1.75,3.25c0,-0.967 0.783,-1.75 1.75,-1.75l13.5,0c0.967,0 1.75,0.783 1.75,1.75l0,7.5a1.75,1.75 0 0 1 -1.75,1.75l-13.5,0a1.75,1.75 0 0 1 -1.75,-1.75l0,-7.5z"/>
  </g>
</svg>