<svg xmlns="http://www.w3.org/2000/svg" xmlns:xlink="http://www.w3.org/1999/xlink" width="16" height="16" style="fill: context-fill; fill-opacity: context-fill-opacity;" preserveAspectRatio="xMidYMid meet" viewBox="0 0 20 20">
  <g>
    <path d="m5.503,11.002a0.5,0.5 0 0 0 -0.5,0.5l0,3a0.5,0.5 0 0 0 1,0l0,-0.5l0.497,0a1.5,1.5 0 0 0 0,-3l-0.997,0zm0.997,2l-0.497,0l0,-1l0.497,0a0.5,0.5 0 1 1 0,1z"/>
    <path d="m12.998,11.501a0.5,0.5 0 0 1 0.5,-0.499l1.505,0a0.5,0.5 0 1 1 0,1l-1.006,0l-0.001,1.002l1.007,0a0.5,0.5 0 0 1 0,1l-1.007,0l0.002,0.497a0.5,0.5 0 0 1 -1,0.002l-0.003,-0.998l0,-0.002l0.003,-2.002z"/>
    <path d="m9.5,11.002a0.5,0.5 0 0 0 -0.5,0.5l0,3a0.5,0.5 0 0 0 0.5,0.5l0.498,0a2,2 0 0 0 0,-4l-0.498,0zm0.5,3l0,-2a1,1 0 0 1 0,2z"/>
    <path d="m18,18l0,-1.164c0.591,-0.281 1,-0.884 1,-1.582l0,-4.504c0,-0.698 -0.409,-1.3 -1,-1.582l0,-1.34a2,2 0 0 0 -0.586,-1.414l-5.829,-5.828a0.491,0.491 0 0 0 -0.049,-0.04a0.63,0.63 0 0 1 -0.036,-0.03a2.072,2.072 0 0 0 -0.219,-0.18a0.652,0.652 0 0 0 -0.08,-0.044l-0.048,-0.024l-0.05,-0.029c-0.054,-0.031 -0.109,-0.063 -0.166,-0.087a1.977,1.977 0 0 0 -0.624,-0.138c-0.02,-0.001 -0.04,-0.004 -0.059,-0.007a0.605,0.605 0 0 0 -0.082,-0.007l-6.172,0a2,2 0 0 0 -2,2l0,7.168c-0.591,0.281 -1,0.884 -1,1.582l0,4.504c0,0.698 0.409,1.3 1,1.582l0,1.164a2,2 0 0 0 2,2l12,0a2,2 0 0 0 2,-2zm-2,0.5l-12,0a0.5,0.5 0 0 1 -0.5,-0.5l0,-0.996l13,0l0,0.996a0.5,0.5 0 0 1 -0.5,0.5zm0.5,-10.5l0,1l-13,0l0,-7a0.5,0.5 0 0 1 0.5,-0.5l6,0l0,4.5a2,2 0 0 0 2,2l4.5,0zm-1.122,-1.5l-3.378,0a0.5,0.5 0 0 1 -0.5,-0.5l0,-3.379l3.878,3.879zm-12.628,4l14.5,0a0.25,0.25 0 0 1 0.25,0.25l0,4.504a0.25,0.25 0 0 1 -0.25,0.25l-14.5,0a0.25,0.25 0 0 1 -0.25,-0.25l0,-4.504a0.25,0.25 0 0 1 0.25,-0.25z"/>
  </g>
</svg>