<svg xmlns="http://www.w3.org/2000/svg" xmlns:xlink="http://www.w3.org/1999/xlink" width="16" height="16" style="fill: context-fill; fill-opacity: context-fill-opacity;" preserveAspectRatio="xMidYMid meet" viewBox="0 0 16 16">
  <g>
    <path d="m12.95,3a2.5,2.5 0 0 0 -4.9,0l-7.55,0a0.5,0.5 0 0 0 0,1l7.55,0a2.5,2.5 0 0 0 4.9,0l2.55,0a0.5,0.5 0 0 0 0,-1l-2.55,0zm-2.45,2a1.5,1.5 0 1 1 0,-3a1.5,1.5 0 0 1 0,3z"/>
    <path d="m7.95,12a2.5,2.5 0 0 0 -4.9,0l-2.55,0a0.5,0.5 0 0 0 0,1l2.55,0a2.5,2.5 0 0 0 4.9,0l7.55,0a0.5,0.5 0 0 0 0,-1l-7.55,0zm-2.45,2a1.5,1.5 0 1 1 0,-3a1.5,1.5 0 0 1 0,3z"/>
  </g>
</svg>