<svg xmlns="http://www.w3.org/2000/svg" xmlns:xlink="http://www.w3.org/1999/xlink" width="16" height="16" style="fill: context-fill; fill-opacity: context-fill-opacity;" preserveAspectRatio="xMidYMid meet" viewBox="0 0 16 16">
  <g>
    <path d="m3.845,1.5c-0.481,0 -0.845,0.374 -0.845,0.804l0,1.196l-1,0l0,-1.196c0,-1.01 0.84,-1.804 1.845,-1.804l10.31,0c1.005,0 1.845,0.794 1.845,1.804l0,7.392c0,1.01 -0.84,1.804 -1.845,1.804l-6.155,0l0,-1l6.155,0c0.481,0 0.845,-0.374 0.845,-0.804l0,-7.392c0,-0.43 -0.364,-0.804 -0.845,-0.804l-10.31,0zm4.155,8l2.5,0a0.5,0.5 0 0 0 0,-1l-2.5,0l0,1zm-5,3a0.5,0.5 0 0 0 0,1l1,0a0.5,0.5 0 0 0 0,-1l-1,0zm-3,-6.5a1.5,1.5 0 0 1 1.5,-1.5l4,0a1.5,1.5 0 0 1 1.5,1.5l0,8a1.5,1.5 0 0 1 -1.5,1.5l-4,0a1.5,1.5 0 0 1 -1.5,-1.5l0,-8zm1.5,-0.5a0.5,0.5 0 0 0 -0.5,0.5l0,8a0.5,0.5 0 0 0 0.5,0.5l4,0a0.5,0.5 0 0 0 0.5,-0.5l0,-8a0.5,0.5 0 0 0 -0.5,-0.5l-4,0z"/>
  </g>
</svg>