<svg xmlns="http://www.w3.org/2000/svg" viewBox="0 0 17 17" width="16" height="16" fill="context-fill" fill-opacity="context-fill-opacity">
  <path d="m0,3.75a2.75,2.75 0 0 1 2.75,-2.75l10.5,0a2.75,2.75 0 0 1 2.75,2.75l0,4.25l-1,0l0,-4.25a1.75,1.75 0 0 0 -1.75,-1.75l-10.5,0a1.75,1.75 0 0 0 -1.75,1.75l0,6.5c0,0.966 0.784,1.75 1.75,1.75l4.25,0l0,1l-4.25,0a2.75,2.75 0 0 1 -2.75,-2.75l0,-6.5zm9.5,5.25a1.5,1.5 0 0 0 -1.5,1.5l0,4a1.5,1.5 0 0 0 1.5,1.5l6,0a1.5,1.5 0 0 0 1.5,-1.5l0,-4a1.5,1.5 0 0 0 -1.5,-1.5l-6,0zm-6.854,-5.354a0.5,0.5 0 0 1 0.708,0l2.646,2.647l0,-1.793a0.5,0.5 0 0 1 1,0l0,3a0.5,0.5 0 0 1 -0.5,0.5l-3,0a0.5,0.5 0 0 1 0,-1l1.793,0l-2.647,-2.646a0.5,0.5 0 0 1 0,-0.708z"/>
</svg>