<svg xmlns="http://www.w3.org/2000/svg" xmlns:xlink="http://www.w3.org/1999/xlink" width="16" height="16" style="fill: context-fill; fill-opacity: context-fill-opacity;" preserveAspectRatio="xMidYMid meet" viewBox="0 0 19 19">
  <g>
    <path d="m13.242,0.807l4.826,4.826a2.75,2.75 0 0 1 -0.715,4.404l-4.87,2.435a0.75,0.75 0 0 0 -0.374,0.426l-1.44,4.166a1.25,1.25 0 0 1 -2.065,0.476l-3.104,-3.104l-4.44,4.439l-1.06,0l0,-1.06l4.44,-4.44l-3.105,-3.104a1.25,1.25 0 0 1 0.476,-2.066l4.166,-1.44a0.75,0.75 0 0 0 0.426,-0.373l2.435,-4.87a2.75,2.75 0 0 1 4.405,-0.715l-0.001,0zm3.766,5.886l-4.826,-4.826a1.25,1.25 0 0 0 -2.002,0.325l-2.435,4.871a2.25,2.25 0 0 1 -1.278,1.12l-3.789,1.31l6.705,6.704l1.308,-3.789a2.25,2.25 0 0 1 1.12,-1.277l4.872,-2.436a1.25,1.25 0 0 0 0.325,-2.002z"/>
  </g>
</svg>