<svg xmlns="http://www.w3.org/2000/svg" xmlns:xlink="http://www.w3.org/1999/xlink" width="16" height="16" style="fill: context-fill; fill-opacity: context-fill-opacity;" preserveAspectRatio="xMidYMid meet" viewBox="0 0 16 16">
  <g>
    <path d="m3,2.5a1.5,1.5 0 0 1 1.5,-1.5l7,0a1.5,1.5 0 0 1 1.5,1.5l0,0.5l0.5,0a2.5,2.5 0 0 1 2.5,2.5l0,5a1.5,1.5 0 0 1 -1.5,1.5l-1.5,0l0,1.5a1.5,1.5 0 0 1 -1.5,1.5l-7,0a1.5,1.5 0 0 1 -1.5,-1.5l0,-1.5l-1.5,0a1.5,1.5 0 0 1 -1.5,-1.5l0,-5a2.5,2.5 0 0 1 2.5,-2.5l0.5,0l0,-0.5zm1,0.5l8,0l0,-0.5a0.5,0.5 0 0 0 -0.5,-0.5l-7,0a0.5,0.5 0 0 0 -0.5,0.5l0,0.5zm-1,8l0,-1.5a1.5,1.5 0 0 1 1.5,-1.5l7,0a1.5,1.5 0 0 1 1.5,1.5l0,1.5l1.5,0a0.5,0.5 0 0 0 0.5,-0.5l0,-5a1.5,1.5 0 0 0 -1.5,-1.5l-11,0a1.5,1.5 0 0 0 -1.5,1.5l0,5a0.5,0.5 0 0 0 0.5,0.5l1.5,0zm1.5,-2a0.5,0.5 0 0 0 -0.5,0.5l0,4a0.5,0.5 0 0 0 0.5,0.5l7,0a0.5,0.5 0 0 0 0.5,-0.5l0,-4a0.5,0.5 0 0 0 -0.5,-0.5l-7,0z"/>
  </g>
</svg>