<svg xmlns="http://www.w3.org/2000/svg" xmlns:xlink="http://www.w3.org/1999/xlink" width="16" height="16" style="fill: context-fill; fill-opacity: context-fill-opacity;" preserveAspectRatio="xMidYMid meet" viewBox="0 0 20 20">
  <g>
    <path d="m6.205,2.844a1,1 0 0 1 0.844,1.813a6.997,6.997 0 0 0 2.951,13.343a6.998,6.998 0 0 0 2.965,-13.336a1,1 0 0 1 0.848,-1.812a8.996,8.996 0 0 1 5.187,8.151c0,4.97 -4.03,8.997 -9,8.997s-9,-4.028 -9,-8.996a8.996,8.996 0 0 1 5.205,-8.16zm3.795,-2.844a1,1 0 0 1 0.993,0.883l0.007,0.117l0,7a1,1 0 0 1 -1.993,0.118l-0.007,-0.118l0,-7a1,1 0 0 1 1,-1z"/>
  </g>
</svg>