<svg xmlns="http://www.w3.org/2000/svg" xmlns:xlink="http://www.w3.org/1999/xlink" width="16" height="16" style="fill: context-fill; fill-opacity: context-fill-opacity;" preserveAspectRatio="xMidYMid meet" viewBox="0 0 20 20">
  <g>
    <path d="m19.25,11a0.75,0.75 0 0 1 0.743,0.648l0.007,0.102l0,5a3.25,3.25 0 0 1 -3.066,3.245l-0.184,0.005l-4.668,0c0.536,-0.385 0.973,-0.9 1.265,-1.499l3.403,-0.001a1.75,1.75 0 0 0 1.744,-1.607l0.006,-0.143l0,-5a0.75,0.75 0 0 1 0.75,-0.75zm-9.5,-4a3.25,3.25 0 0 1 3.25,3.25l0,6.5a3.25,3.25 0 0 1 -3.25,3.25l-6.5,0a3.25,3.25 0 0 1 -3.25,-3.25l0,-6.5a3.25,3.25 0 0 1 3.25,-3.25l6.5,0zm-4.032,8.353l-0.102,0.091l-2.953,2.956c0.184,0.066 0.381,0.101 0.587,0.101l6.5,0c0.206,0 0.403,-0.035 0.587,-0.1l-2.953,-2.955a1.25,1.25 0 0 0 -1.558,-0.17l-0.108,0.078l0,-0.001zm4.032,-6.853l-6.5,0a1.75,1.75 0 0 0 -1.75,1.75l0,6.5c0,0.206 0.036,0.403 0.1,0.587l2.955,-2.953a2.75,2.75 0 0 1 3.752,-0.129l0.138,0.129l2.954,2.953c0.066,-0.184 0.101,-0.381 0.101,-0.587l0,-6.5a1.75,1.75 0 0 0 -1.75,-1.75zm-0.75,1.5a1,1 0 1 1 0,2a1,1 0 0 1 0,-2zm7.75,-10a3.25,3.25 0 0 1 3.245,3.066l0.005,0.184l0,5a0.75,0.75 0 0 1 -1.493,0.102l-0.007,-0.102l0,-5a1.75,1.75 0 0 0 -1.606,-1.744l-0.144,-0.006l-5,0a0.75,0.75 0 0 1 -0.102,-1.493l0.102,-0.007l5,0zm-8.5,0a0.75,0.75 0 0 1 0.102,1.493l-0.102,0.007l-5,0a1.75,1.75 0 0 0 -1.744,1.606l-0.006,0.144l0,3.402c-0.6,0.292 -1.114,0.73 -1.5,1.266l0,-4.668a3.25,3.25 0 0 1 3.066,-3.245l0.184,-0.005l5,0z"/>
  </g>
</svg>