<svg xmlns="http://www.w3.org/2000/svg" xmlns:xlink="http://www.w3.org/1999/xlink" width="16" height="16" style="fill: context-fill; fill-opacity: context-fill-opacity;" preserveAspectRatio="xMidYMid meet" viewBox="0 0 15 15">
  <g>
    <path d="m2,0a2,2 0 0 0 -2,2l0,10a2,2 0 0 0 2,2l3.004,0c0.007,-0.114 0.025,-0.23 0.054,-0.347l0.163,-0.653l-2.221,0l0,-4.5a0.5,0.5 0 0 1 0.5,-0.5l5.444,0l1,-1l-6.444,0a1.5,1.5 0 0 0 -1.5,1.5l0,4.5a1,1 0 0 1 -1,-1l0,-10a1,1 0 0 1 1,-1l1,0l0,2.5a1.5,1.5 0 0 0 1.5,1.5l4,0a1.5,1.5 0 0 0 1.5,-1.5l0,-2.5l0.379,0a1,1 0 0 1 0.707,0.293l1.621,1.621a1,1 0 0 1 0.293,0.707l0,1.382a2.88,2.88 0 0 1 1,0.13l0,-1.511a2,2 0 0 0 -0.586,-1.414l-1.621,-1.621a2,2 0 0 0 -1.414,-0.587l-8.379,0zm2,3.5l0,-2.5l5,0l0,2.5a0.5,0.5 0 0 1 -0.5,0.5l-4,0a0.5,0.5 0 0 1 -0.5,-0.5z"/>
    <path d="m11.81,6.548l-4.83,4.83a2.197,2.197 0 0 0 -0.578,1.02l-0.375,1.498a0.89,0.89 0 0 0 1.079,1.078l1.498,-0.374c0.386,-0.097 0.739,-0.296 1.02,-0.578l4.83,-4.83a1.87,1.87 0 0 0 -2.645,-2.644l0.001,0z"/>
  </g>
</svg>