<svg xmlns="http://www.w3.org/2000/svg" xmlns:xlink="http://www.w3.org/1999/xlink" width="16" height="16" style="fill: context-fill; fill-opacity: context-fill-opacity;" preserveAspectRatio="xMidYMid meet" viewBox="0 0 14 14">
  <g>
    <path d="m3.5,2a1.5,1.5 0 0 0 -1.5,1.5l0,2a0.5,0.5 0 0 0 1,0l0,-2a0.5,0.5 0 0 1 0.5,-0.5l2,0a0.5,0.5 0 0 0 0,-1l-2,0z"/>
    <path d="m8.5,2a0.5,0.5 0 0 0 0,1l2,0a0.5,0.5 0 0 1 0.5,0.5l0,2a0.5,0.5 0 0 0 1,0l0,-2a1.5,1.5 0 0 0 -1.5,-1.5l-2,0z"/>
    <path d="m3,8.5a0.5,0.5 0 0 0 -1,0l0,2a1.5,1.5 0 0 0 1.5,1.5l2,0a0.5,0.5 0 0 0 0,-1l-2,0a0.5,0.5 0 0 1 -0.5,-0.5l0,-2z"/>
    <path d="m12,8.5a0.5,0.5 0 0 0 -1,0l0,2a0.5,0.5 0 0 1 -0.5,0.5l-2,0a0.5,0.5 0 0 0 0,1l2,0a1.5,1.5 0 0 0 1.5,-1.5l0,-2z"/>
    <path d="m0,2a2,2 0 0 1 2,-2l10,0a2,2 0 0 1 2,2l0,10a2,2 0 0 1 -2,2l-10,0a2,2 0 0 1 -2,-2l0,-10zm1,0l0,10a1,1 0 0 0 1,1l10,0a1,1 0 0 0 1,-1l0,-10a1,1 0 0 0 -1,-1l-10,0a1,1 0 0 0 -1,1z"/>
  </g>
</svg>