<svg xmlns="http://www.w3.org/2000/svg" xmlns:xlink="http://www.w3.org/1999/xlink" width="16" height="16" style="fill: context-fill; fill-opacity: context-fill-opacity;" preserveAspectRatio="xMidYMid meet" viewBox="0 0 20 20">
  <g>
    <path d="m18.496,3.627a2.25,2.25 0 0 1 1.504,2.123l0,10a4.25,4.25 0 0 1 -4.25,4.25l-10,0a2.25,2.25 0 0 1 -2.123,-1.504l2.097,0.004l10.026,0a2.75,2.75 0 0 0 2.75,-2.75l0,-10l-0.004,-0.051l0,-2.072zm-3.25,-3.627a2.25,2.25 0 0 1 2.25,2.25l0,12.997a2.25,2.25 0 0 1 -2.25,2.25l-12.996,0a2.25,2.25 0 0 1 -2.25,-2.25l0,-12.997a2.25,2.25 0 0 1 2.25,-2.25l12.997,0l-0.001,0zm0,1.5l-12.996,0a0.75,0.75 0 0 0 -0.75,0.75l0,12.997c0,0.414 0.336,0.75 0.75,0.75l12.997,0a0.75,0.75 0 0 0 0.75,-0.75l0,-12.997a0.75,0.75 0 0 0 -0.75,-0.75l-0.001,0zm-7.665,7.858l3.889,-3.888a0.75,0.75 0 0 1 1.133,0.976l-0.073,0.084l-4.5,4.5a0.75,0.75 0 0 1 -1.056,0.004l-0.074,-0.084l-1.5,-2a0.75,0.75 0 0 1 1.127,-0.984l0.073,0.084l0.981,1.308l3.889,-3.888l-3.89,3.888l0.001,0z"/>
  </g>
</svg>