<svg xmlns="http://www.w3.org/2000/svg" xmlns:xlink="http://www.w3.org/1999/xlink" width="16" height="16" style="fill: context-fill; fill-opacity: context-fill-opacity;" preserveAspectRatio="xMidYMid meet" viewBox="0 0 17 17">
  <g>
    <path d="m2.5,0a1.5,1.5 0 0 0 -1.5,1.5l0,13a1.5,1.5 0 0 0 1.5,1.5l4.757,0a5.503,5.503 0 0 1 -0.657,-1l-4.1,0a0.5,0.5 0 0 1 -0.5,-0.5l0,-13a0.5,0.5 0 0 1 0.5,-0.5l7,0a0.5,0.5 0 0 1 0.5,0.5l0,5.707a5.48,5.48 0 0 1 1,-0.185l0,-5.522a1.5,1.5 0 0 0 -1.5,-1.5l-7,0z"/>
    <path d="m6,12.5c0,-0.168 0.008,-0.335 0.022,-0.5l-1.522,0a0.5,0.5 0 0 0 0,1l1.522,0a5.571,5.571 0 0 1 -0.022,-0.5z"/>
    <path d="m11.5,8a4.5,4.5 0 1 1 0,9a4.5,4.5 0 0 1 0,-9zm2.353,4.854l0.003,-0.003a0.499,0.499 0 0 0 0.144,-0.348l0,-0.006a0.5,0.5 0 0 0 -0.146,-0.35l-2,-2a0.5,0.5 0 0 0 -0.708,0.707l1.147,1.146l-2.793,0a0.5,0.5 0 0 0 0,1l2.793,0l-1.147,1.146a0.5,0.5 0 0 0 0.708,0.708l2,-2l-0.001,0z"/>
  </g>
</svg>