<svg xmlns="http://www.w3.org/2000/svg" xmlns:xlink="http://www.w3.org/1999/xlink" width="16" height="16" style="fill: context-fill; fill-opacity: context-fill-opacity;" preserveAspectRatio="xMidYMid meet" viewBox="0 0 17 17">
  <g>
    <path d="m0.41,5.883a8.491,8.491 0 0 1 1.781,-3.08a0.5,0.5 0 0 1 0.54,-0.135l1.918,0.686a1,1 0 0 0 1.32,-0.762l0.365,-2.006a0.5,0.5 0 0 1 0.388,-0.4a8.532,8.532 0 0 1 3.555,0a0.5,0.5 0 0 1 0.388,0.4l0.366,2.006a1,1 0 0 0 1.32,0.762l1.919,-0.686a0.5,0.5 0 0 1 0.539,0.136a8.491,8.491 0 0 1 1.78,3.079a0.5,0.5 0 0 1 -0.152,0.535l-1.555,1.32a1,1 0 0 0 0,1.524l1.555,1.32a0.5,0.5 0 0 1 0.152,0.535a8.491,8.491 0 0 1 -1.78,3.08a0.5,0.5 0 0 1 -0.54,0.135l-1.918,-0.686a1,1 0 0 0 -1.32,0.762l-0.367,2.007a0.5,0.5 0 0 1 -0.387,0.399a8.53,8.53 0 0 1 -3.555,0a0.5,0.5 0 0 1 -0.388,-0.4l-0.365,-2.006a1,1 0 0 0 -1.32,-0.762l-1.919,0.686a0.5,0.5 0 0 1 -0.539,-0.136a8.49,8.49 0 0 1 -1.78,-3.079a0.5,0.5 0 0 1 0.152,-0.535l1.555,-1.32a1,1 0 0 0 0,-1.524l-1.555,-1.32a0.5,0.5 0 0 1 -0.152,-0.535l-0.001,0zm1.061,-0.006l1.294,1.098a2,2 0 0 1 0,3.05l-1.294,1.098c0.292,0.782 0.714,1.51 1.245,2.152l1.596,-0.57a2,2 0 0 1 2.64,1.525l0.305,1.668a7.556,7.556 0 0 0 2.485,0l0.305,-1.67a2,2 0 0 1 2.64,-1.524l1.597,0.571a7.491,7.491 0 0 0 1.245,-2.152l-1.294,-1.098a1.998,1.998 0 0 1 0,-3.05l1.294,-1.098a7.49,7.49 0 0 0 -1.245,-2.152l-1.596,0.57a2,2 0 0 1 -2.64,-1.524l-0.306,-1.669a7.555,7.555 0 0 0 -2.485,0l-0.304,1.669a2,2 0 0 1 -2.64,1.525l-1.597,-0.571a7.491,7.491 0 0 0 -1.245,2.152zm4.529,2.623a2.5,2.5 0 1 1 5,0a2.5,2.5 0 0 1 -5,0zm1,0a1.5,1.5 0 1 0 3,0a1.5,1.5 0 0 0 -3,0z"/>
  </g>
</svg>