<svg xmlns="http://www.w3.org/2000/svg" xmlns:xlink="http://www.w3.org/1999/xlink" width="16" height="16" style="fill: context-fill; fill-opacity: context-fill-opacity;" preserveAspectRatio="xMidYMid meet" viewBox="0 0 19 19">
  <g>
    <path d="m3.75091,1.5l3.464,0a0.75,0.75 0 0 1 0.102,1.493l-0.102,0.007l-3.464,0a2.25,2.25 0 0 0 -2.245,2.096l-0.005,0.154l0,9.5a2.25,2.25 0 0 0 2.096,2.245l0.154,0.005l9.5,0a2.25,2.25 0 0 0 2.245,-2.096l0.005,-0.154l0,-0.498a0.75,0.75 0 0 1 1.494,-0.101l0.006,0.101l0,0.498a3.75,3.75 0 0 1 -3.55,3.745l-0.2,0.005l-9.5,0a3.75,3.75 0 0 1 -3.745,-3.55l-0.005,-0.2l0,-9.5a3.75,3.75 0 0 1 3.55,-3.745l0.2,-0.005l3.464,0l-3.464,0zm7.753,2.544l0,-2.794a0.75,0.75 0 0 1 1.187,-0.61l0.082,0.069l5.994,5.75c0.28,0.268 0.306,0.7 0.077,0.997l-0.077,0.085l-5.994,5.752a0.75,0.75 0 0 1 -1.262,-0.434l-0.007,-0.107l0,-2.802l-0.321,-0.006c-2.658,-0.008 -4.93,1.083 -6.865,3.301c-0.496,0.568 -1.425,0.132 -1.306,-0.612c0.827,-5.14 3.6,-8.045 8.19,-8.559l0.302,-0.03l0,-2.794l0,2.794z"/>
  </g>
</svg>