<svg xmlns="http://www.w3.org/2000/svg" xmlns:xlink="http://www.w3.org/1999/xlink" width="16" height="16" style="fill: context-fill; fill-opacity: context-fill-opacity;" preserveAspectRatio="xMidYMid meet" viewBox="0 0 16 16">
  <g>
    <path d="m4.085,2l-1.035,0a2.5,2.5 0 0 1 2.45,-2l6.5,0a4,4 0 0 1 4,4l0,6.5a2.5,2.5 0 0 1 -2,2.45l0,-1.035a1.5,1.5 0 0 0 1,-1.415l0,-6.5a3,3 0 0 0 -3,-3l-6.5,0a1.5,1.5 0 0 0 -1.415,1zm-1.585,1a2.5,2.5 0 0 0 -2.5,2.5l0,8a2.5,2.5 0 0 0 2.5,2.5l8,0a2.5,2.5 0 0 0 2.5,-2.5l0,-8a2.5,2.5 0 0 0 -2.5,-2.5l-8,0zm-1.5,2.5a1.5,1.5 0 0 1 1.5,-1.5l8,0a1.5,1.5 0 0 1 1.5,1.5l0,8a1.5,1.5 0 0 1 -1.5,1.5l-8,0a1.5,1.5 0 0 1 -1.5,-1.5l0,-8z"/>
  </g>
</svg>