<svg xmlns="http://www.w3.org/2000/svg" xmlns:xlink="http://www.w3.org/1999/xlink" width="16" height="16" style="fill: context-fill; fill-opacity: context-fill-opacity;" preserveAspectRatio="xMidYMid meet" viewBox="0 0 16 16">
  <g>
    <path d="m7.10205,0.90095a1,1 0 0 1 1.794,0l2.024,4.1l4.578,0a0.5,0.5 0 1 1 0,1l-4.58,0a1,1 0 0 1 -0.896,-0.557l-2.024,-4.1l-1.93,3.91a1,1 0 0 1 -0.753,0.548l-4.317,0.627l3.124,3.045a1,1 0 0 1 0.287,0.885l-0.737,4.299l4.093,-2.152a0.5,0.5 0 0 1 0.466,0.885l-4.093,2.152a1,1 0 0 1 -1.45,-1.054l0.737,-4.3l-3.124,-3.044a1,1 0 0 1 0.554,-1.706l4.317,-0.627l1.93,-3.91l0,-0.001z"/>
    <path d="m9.99805,8.50195a0.5,0.5 0 0 1 0.5,-0.5l5,0a0.5,0.5 0 0 1 0,1l-5,0a0.5,0.5 0 0 1 -0.5,-0.5z"/>
    <path d="m10.49805,11.00195a0.5,0.5 0 1 0 0,1l5,0a0.5,0.5 0 0 0 0,-1l-5,0z"/>
  </g>
</svg>