<svg xmlns="http://www.w3.org/2000/svg" xmlns:xlink="http://www.w3.org/1999/xlink" width="16" height="16" style="fill: context-fill; fill-opacity: context-fill-opacity;" preserveAspectRatio="xMidYMid meet" viewBox="0 0 15 15">
  <g>
    <path d="m2.45081,1a0.5,0.5 0 0 1 0.464,0.333l1.774,5a0.5,0.5 0 0 1 -0.942,0.334l-0.259,-0.727l0,0.06l-2.25,0l-0.264,0.68a0.5,0.5 0 1 1 -0.932,-0.36l1.935,-5a0.5,0.5 0 0 1 0.474,-0.32zm-0.028,1.938l-0.798,2.062l1.53,0l-0.732,-2.062z"/>
    <path d="m14.91581,2.529c-0.246,-0.686 -0.604,-1.106 -1.053,-1.328c-0.41,-0.201 -0.833,-0.201 -1.109,-0.201l-0.027,0c-0.554,0 -0.994,0.19 -1.327,0.487c-0.322,0.288 -0.521,0.656 -0.646,0.99a4.062,4.062 0 0 0 -0.245,1.288l0,0.026l-0.001,0.008l0,0.026c0,0.383 0,1.085 0.25,1.724c0.13,0.335 0.334,0.67 0.656,0.936c0.325,0.268 0.742,0.445 1.257,0.503c0.417,0.046 1.663,0.013 2.23,-1.246a0.5,0.5 0 1 0 -0.911,-0.41c-0.293,0.648 -0.93,0.693 -1.208,0.662c-0.344,-0.039 -0.571,-0.149 -0.73,-0.28a1.264,1.264 0 0 1 -0.363,-0.529c-0.176,-0.45 -0.181,-0.981 -0.181,-1.382l0,-0.013l0.003,-0.059a3.27,3.27 0 0 1 0.18,-0.905c0.09,-0.241 0.214,-0.45 0.375,-0.593c0.15,-0.135 0.355,-0.233 0.66,-0.233c0.304,0 0.51,0.008 0.694,0.098c0.158,0.078 0.371,0.257 0.555,0.769a0.5,0.5 0 1 0 0.941,-0.338z"/>
    <path d="m8.98081,3.836c0.196,-0.267 0.32,-0.622 0.32,-1.077c0,-0.376 -0.074,-0.696 -0.218,-0.96a1.44,1.44 0 0 0 -0.564,-0.57c-0.406,-0.229 -0.846,-0.229 -1.008,-0.229l-1.503,0a0.5,0.5 0 0 0 -0.5,0.5l0,5a0.5,0.5 0 0 0 0.5,0.5l1.75,0c0.218,0 0.662,-0.035 1.07,-0.271c0.446,-0.26 0.798,-0.736 0.798,-1.488c0,-0.383 -0.084,-0.71 -0.246,-0.977a1.445,1.445 0 0 0 -0.399,-0.428zm-0.952,-1.736c0.07,0.039 0.13,0.093 0.176,0.178c0.049,0.089 0.096,0.236 0.096,0.48c0,0.398 -0.15,0.544 -0.275,0.62c-0.164,0.099 -0.374,0.122 -0.495,0.122l-1.023,0l0,-1.5l1,0c0.158,0 0.361,0.01 0.52,0.1l0.001,0zm-1.157,2.4l0.822,0c0.187,0 0.433,0.007 0.628,0.103c0.087,0.043 0.154,0.1 0.204,0.18c0.05,0.083 0.1,0.221 0.1,0.458c0,0.384 -0.152,0.537 -0.301,0.623a1.203,1.203 0 0 1 -0.567,0.136l-1.25,0l0,-1.5l0.364,0z"/>
    <path d="m11.25781,8.817a0.5,0.5 0 1 0 -0.773,-0.634l-3.741,4.573l-1.882,-1.882a0.5,0.5 0 0 0 -0.708,0.707l2.273,2.273a0.5,0.5 0 0 0 0.74,-0.037l4.092,-5l-0.001,0z"/>
  </g>
</svg>