<svg xmlns="http://www.w3.org/2000/svg" xmlns:xlink="http://www.w3.org/1999/xlink" width="16" height="16" style="fill: context-fill; fill-opacity: context-fill-opacity;" preserveAspectRatio="xMidYMid meet" viewBox="0 0 18 18">
  <g>
    <path d="m0.053,10.46023l3.753,-9.496c0.236,-0.595 1.043,-0.63 1.345,-0.104l0.05,0.105l3.747,9.5a0.75,0.75 0 0 1 -1.352,0.643l-0.043,-0.092l-0.997,-2.526l-4.113,0l-0.995,2.52a0.75,0.75 0 0 1 -0.876,0.454l-0.098,-0.031a0.75,0.75 0 0 1 -0.452,-0.876l0.03,-0.098l0.001,0.001zm4.45,-7.178l-1.467,3.708l2.928,0l-1.461,-3.708zm4.497,1.958c0,0.414 0.336,0.75 0.75,0.75l5.69,0l-0.72,0.72a0.75,0.75 0 1 0 1.06,1.06l2,-2a0.75,0.75 0 0 0 0,-1.06l-2,-2a0.75,0.75 0 1 0 -1.06,1.06l0.72,0.72l-5.69,0a0.75,0.75 0 0 0 -0.75,0.75zm-9,9.5c0,0.414 0.336,0.75 0.75,0.75l14.69,0l-0.72,0.72a0.75,0.75 0 1 0 1.06,1.06l2,-2a0.75,0.75 0 0 0 0,-1.06l-2,-2a0.75,0.75 0 1 0 -1.06,1.06l0.72,0.72l-14.69,0a0.75,0.75 0 0 0 -0.75,0.75z"/>
  </g>
</svg>