<svg xmlns="http://www.w3.org/2000/svg" xmlns:xlink="http://www.w3.org/1999/xlink" width="16" height="16" style="fill: context-fill; fill-opacity: context-fill-opacity;" preserveAspectRatio="xMidYMid meet" viewBox="0 0 15 15">
  <g>
    <path d="m2.43519,0.5a0.5,0.5 0 0 1 0.464,0.333l1.774,5a0.5,0.5 0 1 1 -0.942,0.334l-0.237,-0.667l-2.272,0l-0.264,0.68a0.5,0.5 0 0 1 -0.932,-0.36l1.935,-5a0.5,0.5 0 0 1 0.474,-0.32zm-0.826,4l1.53,0l-0.732,-2.062l-0.798,2.062zm4.383,-4l1.503,0c0.162,0 0.602,0 1.008,0.228c0.214,0.12 0.418,0.303 0.564,0.57c0.145,0.265 0.219,0.585 0.219,0.96c0,0.456 -0.125,0.811 -0.32,1.078c0.148,0.106 0.287,0.246 0.398,0.428c0.162,0.267 0.246,0.594 0.246,0.978c0,0.751 -0.352,1.228 -0.798,1.487a2.197,2.197 0 0 1 -1.07,0.271l-1.75,0a0.5,0.5 0 0 1 -0.5,-0.5l0,-5a0.5,0.5 0 0 1 0.5,-0.5zm1.5,1l-1,0l0,1.5l1.024,0c0.12,0 0.33,-0.023 0.494,-0.123c0.125,-0.075 0.276,-0.221 0.276,-0.618c0,-0.245 -0.048,-0.393 -0.096,-0.48a0.441,0.441 0 0 0 -0.177,-0.18c-0.161,-0.089 -0.363,-0.099 -0.521,-0.099zm-1,2.5l0,1.5l1.25,0c0.14,0 0.38,-0.027 0.567,-0.136c0.149,-0.086 0.301,-0.239 0.301,-0.622c0,-0.137 -0.017,-0.24 -0.04,-0.32a0.642,0.642 0 0 0 -0.06,-0.138a0.473,0.473 0 0 0 -0.204,-0.18c-0.195,-0.097 -0.441,-0.104 -0.628,-0.104l-1.186,0zm8.408,-1.97c-0.246,-0.687 -0.604,-1.107 -1.053,-1.329c-0.41,-0.201 -0.835,-0.201 -1.109,-0.201l-0.027,0c-0.554,0 -0.994,0.19 -1.327,0.487c-0.322,0.288 -0.521,0.656 -0.646,0.99a4.065,4.065 0 0 0 -0.245,1.288l0,0.026l-0.001,0.008l0,0.026c0,0.383 0,1.085 0.25,1.724c0.13,0.335 0.334,0.67 0.656,0.936c0.325,0.268 0.742,0.445 1.257,0.503c0.417,0.046 1.663,0.013 2.23,-1.246a0.5,0.5 0 1 0 -0.911,-0.41c-0.293,0.648 -0.93,0.693 -1.208,0.662c-0.344,-0.039 -0.571,-0.148 -0.73,-0.28a1.264,1.264 0 0 1 -0.363,-0.528c-0.176,-0.45 -0.181,-0.982 -0.181,-1.383l0,-0.013l0.003,-0.059a3.278,3.278 0 0 1 0.18,-0.905c0.09,-0.241 0.214,-0.45 0.375,-0.593c0.15,-0.135 0.355,-0.233 0.66,-0.233c0.304,0 0.51,0.008 0.694,0.098c0.158,0.078 0.371,0.257 0.555,0.769a0.5,0.5 0 0 0 0.941,-0.338l0,0.001zm-3.211,7.675a0.737,0.737 0 0 0 -0.216,0.341a0.5,0.5 0 0 1 -0.962,-0.274c0.068,-0.237 0.219,-0.555 0.516,-0.817c0.307,-0.271 0.74,-0.455 1.311,-0.455c1.168,0 1.846,0.854 1.846,1.636c0,0.304 -0.058,0.776 -0.38,1.18a1.603,1.603 0 0 1 -0.138,0.154a1.527,1.527 0 0 1 0.247,0.267c0.175,0.247 0.271,0.549 0.271,0.9c0,0.629 -0.212,1.121 -0.598,1.447c-0.37,0.313 -0.836,0.416 -1.248,0.416c-0.387,0 -0.774,-0.064 -1.109,-0.276c-0.344,-0.219 -0.573,-0.554 -0.712,-0.977a0.5,0.5 0 0 1 0.95,-0.312c0.043,0.131 0.092,0.227 0.144,0.298l0.015,0.02l0.032,0.037l0.015,0.016l0.017,0.016a0.619,0.619 0 0 0 0.21,0.12c0.107,0.036 0.248,0.058 0.438,0.058c0.26,0 0.469,-0.067 0.603,-0.18c0.12,-0.101 0.243,-0.29 0.243,-0.684a0.525,0.525 0 0 0 -0.085,-0.319a0.577,0.577 0 0 0 -0.234,-0.18c-0.233,-0.109 -0.537,-0.137 -0.751,-0.137a0.5,0.5 0 1 1 0,-1c0.573,0 0.804,-0.175 0.908,-0.305c0.12,-0.153 0.162,-0.362 0.162,-0.559c0,-0.217 -0.219,-0.636 -0.846,-0.636c-0.342,0 -0.536,0.104 -0.65,0.205l0.001,0zm-5.197,0.659c0,-0.443 0.37,-0.864 0.835,-0.864c0.336,0 0.614,0.158 0.752,0.37c0.123,0.188 0.182,0.494 -0.07,0.922c-0.122,0.208 -0.304,0.39 -0.543,0.578a8.91,8.91 0 0 1 -0.383,0.282l-0.057,0.04c-0.117,0.083 -0.241,0.17 -0.361,0.26c-0.566,0.428 -1.173,1.012 -1.173,2.048a0.5,0.5 0 0 0 0.5,0.5l2.693,0a0.5,0.5 0 1 0 0,-1l-2.096,0c0.122,-0.282 0.355,-0.505 0.677,-0.748c0.102,-0.077 0.208,-0.152 0.32,-0.231l0.015,-0.01l0.06,-0.042c0.137,-0.098 0.283,-0.202 0.425,-0.314c0.282,-0.223 0.573,-0.495 0.785,-0.856c0.416,-0.708 0.404,-1.425 0.046,-1.975c-0.343,-0.527 -0.955,-0.824 -1.59,-0.824c-1.088,0 -1.835,0.943 -1.835,1.864a0.5,0.5 0 1 0 1,0zm-4.582,0.87c0.206,-0.137 0.404,-0.3 0.586,-0.479l0,3.245a0.5,0.5 0 1 0 1,0l0,-5a0.5,0.5 0 0 0 -0.989,-0.107c-0.102,0.47 -0.552,1.109 -1.152,1.51a0.5,0.5 0 1 0 0.555,0.831z"/>
  </g>
</svg>