<svg xmlns="http://www.w3.org/2000/svg" xmlns:xlink="http://www.w3.org/1999/xlink" width="16" height="16" style="fill: context-fill; fill-opacity: context-fill-opacity;" preserveAspectRatio="xMidYMid meet" viewBox="0 0 16 16">
  <g>
    <path d="m8.00977,0a2.25,2.25 0 1 0 0,4.5a2.25,2.25 0 0 0 0,-4.5zm-5.152,2.827a1.438,1.438 0 0 0 -1.016,2.691l3.168,1.22l0,2.4l-1.716,4.73a1.535,1.535 0 0 0 2.88,1.06l1.512,-4.04a0.35,0.35 0 0 1 0.653,0l1.514,4.015a1.529,1.529 0 0 0 2.868,-1.06l-1.711,-4.716l0,-2.392l3.144,-1.193a1.435,1.435 0 0 0 -1.002,-2.69l-1.948,0.713a0.5,0.5 0 0 0 -0.27,0.235a3.309,3.309 0 0 1 -5.857,-0.015a0.5,0.5 0 0 0 -0.27,-0.237l-1.949,-0.72l0,-0.001z"/>
  </g>
</svg>