<svg xmlns="http://www.w3.org/2000/svg" xmlns:xlink="http://www.w3.org/1999/xlink" width="16" height="16" style="fill: context-fill; fill-opacity: context-fill-opacity;" preserveAspectRatio="xMidYMid meet" viewBox="0 0 16 16">
  <g>
    <path d="m2.5,2a2.5,2.5 0 0 0 -2.5,2.5l0,7a2.5,2.5 0 0 0 2.5,2.5l7,0a2.5,2.5 0 0 0 2.5,-2.5l0,-1l2.4,1.8a1,1 0 0 0 1.6,-0.8l0,-7a1,1 0 0 0 -1.6,-0.8l-2.4,1.8l0,-1a2.5,2.5 0 0 0 -2.5,-2.5l-7,0zm9.5,4.75l3,-2.25l0,7l-3,-2.25l0,-2.5zm-1,-2.25l0,7a1.5,1.5 0 0 1 -1.5,1.5l-7,0a1.5,1.5 0 0 1 -1.5,-1.5l0,-7a1.5,1.5 0 0 1 1.5,-1.5l7,0a1.5,1.5 0 0 1 1.5,1.5z"/>
  </g>
</svg>