<svg xmlns="http://www.w3.org/2000/svg" xmlns:xlink="http://www.w3.org/1999/xlink" width="16" height="16" style="fill: context-fill; fill-opacity: context-fill-opacity;" preserveAspectRatio="xMidYMid meet" viewBox="0 0 16 16">
  <g>
    <path d="m6.74459,1.31489l-6.559,11.925a1.5,1.5 0 0 0 1.314,2.223l13.119,0a1.5,1.5 0 0 0 1.314,-2.223l-6.56,-11.925a1.5,1.5 0 0 0 -2.628,0zm1.314,3.898a0.75,0.75 0 0 1 0.75,0.75l0,4a0.75,0.75 0 0 1 -1.5,0l0,-4a0.75,0.75 0 0 1 0.75,-0.75zm0.75,7a0.75,0.75 0 1 1 -1.5,0a0.75,0.75 0 0 1 1.5,0z"/>
  </g>
</svg>