<svg xmlns="http://www.w3.org/2000/svg" xmlns:xlink="http://www.w3.org/1999/xlink" width="16" height="16" style="fill: context-fill; fill-opacity: context-fill-opacity;" preserveAspectRatio="xMidYMid meet" viewBox="0 0 14 14">
  <g>
    <path d="m6.516,3a0.5,0.5 0 0 0 0,1l2.777,0l-4.147,4.146a0.5,0.5 0 0 0 0.708,0.708l4.146,-4.147l0,2.777a0.5,0.5 0 0 0 1,0l0,-3.984a0.5,0.5 0 0 0 -0.5,-0.5l-3.984,0z"/>
    <path d="m9.766,14a2.5,2.5 0 0 0 2.47,-2.11a2.501,2.501 0 0 0 1.764,-2.39l0,-7a2.5,2.5 0 0 0 -2.5,-2.5l-7,0a2.501,2.501 0 0 0 -2.4,1.797a2.5,2.5 0 0 0 -2.1,2.469l0,6.234a3.5,3.5 0 0 0 3.5,3.5l6.266,0zm-8.766,-9.734a1.5,1.5 0 0 1 1,-1.416l0,6.65a2.5,2.5 0 0 0 2.5,2.5l6.68,0a1.5,1.5 0 0 1 -1.414,1l-6.266,0a2.5,2.5 0 0 1 -2.5,-2.5l0,-6.234zm3.5,-3.266l7,0a1.5,1.5 0 0 1 1.5,1.5l0,7a1.5,1.5 0 0 1 -1.5,1.5l-7,0a1.5,1.5 0 0 1 -1.5,-1.5l0,-7a1.5,1.5 0 0 1 1.5,-1.5z"/>
  </g>
</svg>